<?xml version="1.0" encoding="utf-8"?>
<!-- Generator: Adobe Illustrator 21.1.0, SVG Export Plug-In . SVG Version: 6.00 Build 0)  -->
<!DOCTYPE svg PUBLIC "-//W3C//DTD SVG 1.1//EN" "http://www.w3.org/Graphics/SVG/1.1/DTD/svg11.dtd">
<svg class="arrow-1" version="1.1" id="Layer_1" xmlns="http://www.w3.org/2000/svg" xmlns:xlink="http://www.w3.org/1999/xlink" x="0px" y="0px"
	 viewBox="0 0 72 72" style="enable-background:new 0 0 72 72;" xml:space="preserve">
<style type="text/css">
	.st0{display:none;}
	.st1{display:inline;}
	.st2{display:none;fill:#000;}
	.st3{fill:#000;}
</style>
<image style="display:none;overflow:visible;" width="2560" height="1160" xlink:href="E0E2E6359D4C12E5.png"  transform="matrix(2.796881e-02 0 0 2.796881e-02 0.419 19.5618)">
</image>
<g id="arrow1" class="st0">
	<g class="st1">
		<path d="M53.1,37.7c1-1,1-2.6,0-3.5L37.2,18.6c-1.9-1.9-4.7,0.9-2.8,2.8l11.9,11.9c0.4,0.4,0.3,0.7-0.3,0.7H19.8c-1.1,0-2,0.9-2,2
			c0,1.1,0.9,2,2,2H46c0.6,0,0.7,0.3,0.3,0.7L34.4,50.6c-1.9,1.9,0.9,4.7,2.8,2.8L53.1,37.7z"/>
	</g>
</g>
<path id="search" class="st2" d="M61.8,57.8L49.3,45.3c3-3.8,4.6-8.5,4.6-13.5c0-12.1-9.8-21.9-21.9-21.9
	c-12.1,0-21.9,9.8-21.9,21.9c0,12.1,9.8,21.9,21.9,21.9c4.6,0,9.2-1.5,12.9-4.2l12.6,12.6L61.8,57.8z M32.1,47.6
	c-8.7,0-15.8-7.1-15.8-15.8c0-8.7,7.1-15.8,15.8-15.8c8.7,0,15.8,7.1,15.8,15.8c0,4.7-2,9.1-5.6,12.1C39.4,46.3,35.8,47.6,32.1,47.6
	z"/>
<g id="arrow_2" class="st0">
	<g class="st1">
		<polygon points="24.9,54.9 27.1,57.1 48.1,36 27.1,14.9 24.9,17.1 43.9,36 		"/>
	</g>
</g>
<g>
	<g>
		<polygon class="st3" points="62.3,35.9 35.9,9.8 31.6,14.1 50.5,33 9.7,33 9.7,39 50.5,39 31.6,57.9 35.9,62.2 		"/>
	</g>
</g>
</svg>
