<?xml version="1.0" encoding="utf-8"?>
<!-- Generator: Adobe Illustrator 21.1.0, SVG Export Plug-In . SVG Version: 6.00 Build 0)  -->
<!DOCTYPE svg PUBLIC "-//W3C//DTD SVG 1.1//EN" "http://www.w3.org/Graphics/SVG/1.1/DTD/svg11.dtd">
<svg version="1.1" id="Layer_1" xmlns="http://www.w3.org/2000/svg" xmlns:xlink="http://www.w3.org/1999/xlink" x="0px" y="0px"
	 viewBox="0 0 72 72" style="enable-background:new 0 0 72 72;" xml:space="preserve">
<style type="text/css">
	.st0{display:none;fill:#FFFFFF;}
	.st1{display:none;}
	.st2{display:inline;}
	.st3{fill:#FFFFFF;}
	.st4{fill:#231F20;}
</style>
<image style="display:none;overflow:visible;" width="2560" height="1160" xlink:href="E645461B6DDB866B.png"  transform="matrix(2.796881e-02 0 0 2.796881e-02 0.419 19.5618)">
</image>
<path id="search" class="st0" d="M61.8,57.8L49.3,45.3c3-3.8,4.6-8.5,4.6-13.5c0-12.1-9.8-21.9-21.9-21.9
	c-12.1,0-21.9,9.8-21.9,21.9c0,12.1,9.8,21.9,21.9,21.9c4.6,0,9.2-1.5,12.9-4.2l12.6,12.6L61.8,57.8z M32.1,47.6
	c-8.7,0-15.8-7.1-15.8-15.8c0-8.7,7.1-15.8,15.8-15.8c8.7,0,15.8,7.1,15.8,15.8c0,4.7-2,9.1-5.6,12.1C39.4,46.3,35.8,47.6,32.1,47.6
	z"/>
<g id="arrow-2" class="st1">
	<g class="st2">
		<polygon points="24.9,54.9 27.1,57.1 48.1,36 27.1,14.9 24.9,17.1 43.9,36 		"/>
	</g>
</g>
<g id="menu" transform="translate(0,-952.36218)" class="st1">
	<path class="st2" d="M13.3,971.4v4.5h45.3v-4.5H13.3z M13.3,986.1v4.5h45.3v-4.5H13.3z M13.3,1000.8v4.5h45.3v-4.5H13.3z"/>
</g>
<g id="select" transform="matrix( 1, 0, 0, 1, 0,0) " class="st1">
	<g class="st2">
		<polygon class="st3" points="56,59 36,39 16,59 13,56 33,36 13,16 16,13 36,33 56,13 59,16 39,36 59,56 		"/>
	</g>
</g>
<g id="arrow-3" transform="translate(0,-952.36218)" class="st1">
	<path class="st2" d="M26.3,1017.5l-8.7-8.3l20-20.8l-20-20.8l8.7-8.3l24,25l4,4.2l-4,4.2L26.3,1017.5L26.3,1017.5z"/>
</g>
<g id="arrow-1_1_" class="st1">
	<g class="st2">
		<polygon class="st4" points="62.3,35.9 35.9,9.8 31.6,14.1 50.5,33 9.7,33 9.7,39 50.5,39 31.6,57.9 35.9,62.2 		"/>
	</g>
</g>
<g id="download">
	<g id="arrow-1">
		<g>
			<polygon class="st3" points="36.1,57.9 62.2,31.5 57.9,27.3 39,46.2 39,5.4 33,5.4 33,46.2 14.1,27.3 9.8,31.5 			"/>
		</g>
	</g>
	
		<rect x="33" y="37.5" transform="matrix(-1.836970e-16 1 -1 -1.836970e-16 99.6384 27.6384)" class="st3" width="6" height="52.3"/>
</g>
</svg>
