<svg xmlns="http://www.w3.org/2000/svg" viewBox="0 0 72 72"><path d="M27.2 19.5v13.2h-6.6v15.4c0 2.4 2 4.4 4.4 4.4h22c2.4 0 4.4-2 4.4-4.4V19.5H27.2zM22.8 48.1V34.9h4.4v13.2c0 1.2-1 2.2-2.2 2.2S22.8 49.3 22.8 48.1zM49.2 48.1c0 1.2-1 2.2-2.2 2.2H28.8c0.4-0.7 0.6-1.4 0.6-2.2V21.7h19.8V48.1z"/><rect x="32.7" y="26.1" width="13.2" height="2.2"/><rect x="32.7" y="30.5" width="13.2" height="2.2"/><rect x="32.7" y="34.9" width="13.2" height="2.2"/><rect x="32.7" y="39.3" width="13.2" height="2.2"/><rect x="32.7" y="43.7" width="13.2" height="2.2"/></svg>