<?xml version="1.0" encoding="utf-8"?>
<!-- Generator: Adobe Illustrator 21.1.0, SVG Export Plug-In . SVG Version: 6.00 Build 0)  -->
<!DOCTYPE svg PUBLIC "-//W3C//DTD SVG 1.1//EN" "http://www.w3.org/Graphics/SVG/1.1/DTD/svg11.dtd">
<svg fill="#ffffff" version="1.1" id="Layer_1" xmlns="http://www.w3.org/2000/svg" xmlns:xlink="http://www.w3.org/1999/xlink" x="0px" y="0px"
	 viewBox="0 0 72 72" style="enable-background:new 0 0 72 72;" xml:space="preserve">

	<path  d="M61.8,57.8L49.3,45.3c3-3.8,4.6-8.5,4.6-13.5c0-12.1-9.8-21.9-21.9-21.9c-12.1,0-21.9,9.8-21.9,21.9
	c0,12.1,9.8,21.9,21.9,21.9c4.6,0,9.2-1.5,12.9-4.2l12.6,12.6L61.8,57.8z M32.1,47.6c-8.7,0-15.8-7.1-15.8-15.8
	c0-8.7,7.1-15.8,15.8-15.8c8.7,0,15.8,7.1,15.8,15.8c0,4.7-2,9.1-5.6,12.1C39.4,46.3,35.8,47.6,32.1,47.6z"/>
</svg>
