<?xml version="1.0" encoding="utf-8"?>
<!-- Generator: Adobe Illustrator 21.1.0, SVG Export Plug-In . SVG Version: 6.00 Build 0)  -->
<!DOCTYPE svg PUBLIC "-//W3C//DTD SVG 1.1//EN" "http://www.w3.org/Graphics/SVG/1.1/DTD/svg11.dtd">
<svg version="1.1" id="Layer_1" xmlns="http://www.w3.org/2000/svg" xmlns:xlink="http://www.w3.org/1999/xlink" x="0px" y="0px"
	 viewBox="0 0 153 57" style="enable-background:new 0 0 153 57;" xml:space="preserve">
<style type="text/css">
	.st0{fill:#FFFFFF;}
</style>
<g>
	<g>
		<polygon class="st0" points="10.9,10.5 18.7,10.5 22,32 22,32 26.5,10.5 32.1,10.5 36.6,32.4 36.6,32.4 39.9,10.5 47.5,10.5 
			40.4,46.5 34,46.5 29.3,25.6 29.3,25.6 24.5,46.5 18.1,46.5 		"/>
		<path class="st0" d="M49.4,46.5v-36h7.2l0,36H49.4z"/>
		<path class="st0" d="M60.1,46.5v-36h7.2V40h8.3v6.5H60.1z"/>
		<path class="st0" d="M98.3,28.4c0,1.7,0,3.2-0.1,4.7c-0.1,1.5-0.2,2.8-0.3,4c-0.2,1.2-0.4,2.3-0.8,3.3c-0.4,1-0.9,1.8-1.5,2.6
			c-0.8,0.9-1.8,1.8-3,2.5c-1.2,0.7-2.8,1-4.9,1H77.5v-36h10.2c2,0,3.6,0.3,4.9,1c1.2,0.7,2.2,1.5,3,2.5c0.6,0.7,1.1,1.6,1.5,2.5
			c0.4,1,0.6,2.1,0.8,3.3c0.2,1.2,0.3,2.5,0.3,4C98.2,25.2,98.3,26.8,98.3,28.4z M91.1,28.4c0-1,0-2,0-3c0-1-0.1-1.9-0.1-2.8
			c0-0.9-0.1-1.7-0.2-2.4c-0.1-0.7-0.3-1.3-0.5-1.7c-0.2-0.5-0.6-0.8-1-1.1c-0.4-0.3-1-0.4-1.7-0.4h-2.8l0,23.1h2.8
			c0.7,0,1.2-0.1,1.7-0.4c0.4-0.3,0.8-0.7,1-1.1c0.2-0.4,0.4-1,0.5-1.7c0.1-0.7,0.2-1.5,0.3-2.4c0.1-0.9,0.1-1.8,0.1-2.9
			C91.1,30.5,91.1,29.5,91.1,28.4z"/>
		<path class="st0" d="M114.3,46.5l-2-9.9H104l-1.9,9.9h-3.2l8-36h2.8l7.9,36H114.3z M108.2,15.9L104.6,34h7.2L108.2,15.9z"/>
		<path class="st0" d="M119.7,46.5l0-36h3v36H119.7z"/>
		<path class="st0" d="M142.1,28.5c0,2.8,0,5.1-0.1,6.9c-0.1,1.8-0.2,3.3-0.4,4.4c-0.2,1.1-0.4,2.1-0.8,2.7
			c-0.3,0.7-0.8,1.3-1.3,1.9c-0.6,0.6-1.4,1.1-2.2,1.5c-0.9,0.4-1.9,0.6-3.1,0.6h-7.4v-36h7.4c1.2,0,2.2,0.2,3.1,0.6
			c0.9,0.4,1.6,0.9,2.2,1.5c0.5,0.6,1,1.2,1.3,1.9c0.3,0.7,0.6,1.6,0.8,2.7c0.2,1.1,0.3,2.6,0.4,4.4
			C142.1,23.4,142.1,25.7,142.1,28.5z M139.1,28.5c0-2.6,0-4.7,0-6.3c0-1.6-0.1-3-0.3-4c-0.1-1-0.3-1.8-0.5-2.4
			c-0.2-0.6-0.5-1-0.9-1.4c-0.7-0.8-1.8-1.3-3.3-1.3h-4.2v30.6h4.2c1.4,0,2.5-0.4,3.3-1.3c0.4-0.4,0.7-0.9,0.9-1.4
			c0.2-0.6,0.4-1.3,0.5-2.4c0.1-1,0.2-2.3,0.3-4C139.1,33.2,139.1,31.1,139.1,28.5z"/>
	</g>
</g>
</svg>
