<svg id="Layer_1" data-name="Layer 1" xmlns="http://www.w3.org/2000/svg" viewBox="0 0 440.43 22.04"><defs><style>.cls-1{fill:#e17000;}</style></defs><title>wildaid_corporate-site_nav-tagline</title><path class="cls-1" d="M179.29,300.37h-2.74v6.92h-4V288.64h6.75c3.14,0,4.79,1.82,4.79,4.62v2.52C184.08,298.55,182.43,300.37,179.29,300.37Zm1-7c0-1-.39-1.56-1.43-1.56h-2.26v5.62h2.26c1,0,1.43-.56,1.43-1.56Z" transform="translate(-172.54 -288.16)"/><path class="cls-1" d="M196.2,307.4c-1.62,0-2.24-1.12-2.24-2.86v-3.05a1.62,1.62,0,0,0-1.65-1.82h-2.16v7.62h-4V288.64h6.72c3,0,4.84,1.74,4.84,4.42v2a3,3,0,0,1-2.4,3.11,3.13,3.13,0,0,1,2.49,3.08v3.05a2.35,2.35,0,0,0,.78,1.9v1.18Zm-2.35-14.11c0-.93-.39-1.51-1.43-1.51h-2.27v5.12h2.1a1.44,1.44,0,0,0,1.6-1.65Z" transform="translate(-172.54 -288.16)"/><path class="cls-1" d="M206.25,307.76c-3.83,0-6.13-2.38-6.13-5.71v-8.17c0-3.31,2.3-5.69,6.13-5.69s6.14,2.38,6.14,5.69v8.17C212.39,305.38,210.12,307.76,206.25,307.76Zm2.1-14.11a2.09,2.09,0,1,0-4.17,0v8.63a2.09,2.09,0,1,0,4.17,0Z" transform="translate(-172.54 -288.16)"/><path class="cls-1" d="M221.79,292.06v15.23h-4V292.06h-4v-3.42h12v3.42Z" transform="translate(-172.54 -288.16)"/><path class="cls-1" d="M227.48,307.29V288.64h10.39V292h-6.39v4.09h4.4v3h-4.4v4.68h6.39v3.5Z" transform="translate(-172.54 -288.16)"/><path class="cls-1" d="M246,307.76c-4,0-6.25-2.54-6.25-5.76v-8.07c0-3.22,2.3-5.77,6.25-5.77s5.88,2.33,5.88,5.44v1.82h-3.59v-1.74a2.24,2.24,0,0,0-4.48-.06v8.71a2.25,2.25,0,0,0,4.48-.08v-1.74h3.59v1.82C251.84,305.44,249.85,307.76,246,307.76Z" transform="translate(-172.54 -288.16)"/><path class="cls-1" d="M261,292.06v15.23h-4V292.06h-4v-3.42h12v3.42Z" transform="translate(-172.54 -288.16)"/><path class="cls-1" d="M266.71,307.29V288.64h4v18.65Z" transform="translate(-172.54 -288.16)"/><path class="cls-1" d="M282.81,307.29l-4.12-7.48-1.6-3.05v10.53h-3.67V288.64h3.34l4,7.64,1.51,3.06v-10.7h3.61v18.65Z" transform="translate(-172.54 -288.16)"/><path class="cls-1" d="M298.48,307.29l-.5-1.71a4.33,4.33,0,0,1-4,2.18,5.21,5.21,0,0,1-5.58-5.43V293.6c0-2.78,2.22-5.41,6.19-5.41s6,2.49,6,5.41V295h-3.86v-1.52a1.86,1.86,0,0,0-2.1-1.93,2,2,0,0,0-2.16,2v8.85a2.21,2.21,0,0,0,4.4,0v-1.93h-2.18v-2.75h6v9.58Z" transform="translate(-172.54 -288.16)"/><path class="cls-1" d="M322.31,307.29h-3.58l-2.21-10.89-2.3,10.89h-3.55l-3.9-18.65h4l2,12.21,2.35-12.21h3.11l2.23,12.21,2.08-12.21h3.69Z" transform="translate(-172.54 -288.16)"/><path class="cls-1" d="M327.66,307.29V288.64h4v18.65Z" transform="translate(-172.54 -288.16)"/><path class="cls-1" d="M334.38,307.29V288.64h4v15.2h6.14v3.45Z" transform="translate(-172.54 -288.16)"/><path class="cls-1" d="M352.44,307.29h-6.22V288.64h6.22c3.86,0,5.94,2.49,5.94,5.6v7.67C358.38,305.05,356.3,307.29,352.44,307.29Zm1.93-13c0-1.48-.7-2.35-2.24-2.35h-1.9v12h1.9c1.54,0,2.24-.87,2.24-2.36Z" transform="translate(-172.54 -288.16)"/><path class="cls-1" d="M360.87,307.29V288.64h4v15.2H371v3.45Z" transform="translate(-172.54 -288.16)"/><path class="cls-1" d="M372.71,307.29V288.64h4v18.65Z" transform="translate(-172.54 -288.16)"/><path class="cls-1" d="M383.44,291.89v4.45h4.5v3.22h-4.5v7.73h-4V288.64h10.19v3.25Z" transform="translate(-172.54 -288.16)"/><path class="cls-1" d="M391.33,307.29V288.64h10.39V292h-6.38v4.09h4.39v3h-4.39v4.68h6.38v3.5Z" transform="translate(-172.54 -288.16)"/><path class="cls-1" d="M403.48,310.2v-.92c1.07,0,1.77-.68,1.77-2h-1.43v-3.81h3.08v3.42A3.13,3.13,0,0,1,403.48,310.2Z" transform="translate(-172.54 -288.16)"/><path class="cls-1" d="M424.48,307.4c-1.62,0-2.24-1.12-2.24-2.86v-3.05a1.62,1.62,0,0,0-1.65-1.82h-2.15v7.62h-4V288.64h6.72c3,0,4.85,1.74,4.85,4.42v2a3,3,0,0,1-2.41,3.11,3.13,3.13,0,0,1,2.49,3.08v3.05a2.35,2.35,0,0,0,.78,1.9v1.18Zm-2.35-14.11c0-.93-.39-1.51-1.43-1.51h-2.26v5.12h2.1a1.44,1.44,0,0,0,1.59-1.65Z" transform="translate(-172.54 -288.16)"/><path class="cls-1" d="M428.6,307.29V288.64H439V292H432.6v4.09H437v3h-4.4v4.68H439v3.5Z" transform="translate(-172.54 -288.16)"/><path class="cls-1" d="M447.33,307.29h-6.21V288.64h6.21c3.87,0,5.94,2.49,5.94,5.6v7.67C453.27,305.05,451.2,307.29,447.33,307.29Zm1.93-13c0-1.48-.7-2.35-2.24-2.35h-1.9v12H447c1.54,0,2.24-.87,2.24-2.36Z" transform="translate(-172.54 -288.16)"/><path class="cls-1" d="M461.83,307.76c-3.52,0-6.1-2.12-6.1-5.23V288.64h4.06v13.83a1.81,1.81,0,0,0,2,2,1.84,1.84,0,0,0,2.1-2V288.64h3.9v13.89C467.83,305.64,465.39,307.76,461.83,307.76Z" transform="translate(-172.54 -288.16)"/><path class="cls-1" d="M476.56,307.76c-3.95,0-6.24-2.54-6.24-5.76v-8.07c0-3.22,2.29-5.77,6.24-5.77s5.88,2.33,5.88,5.44v1.82h-3.58v-1.74a2.24,2.24,0,0,0-4.48-.06v8.71a2.25,2.25,0,0,0,4.48-.08v-1.74h3.58v1.82C482.44,305.44,480.45,307.76,476.56,307.76Z" transform="translate(-172.54 -288.16)"/><path class="cls-1" d="M484.63,307.29V288.64h4v18.65Z" transform="translate(-172.54 -288.16)"/><path class="cls-1" d="M500.73,307.29l-4.12-7.48-1.6-3.05v10.53h-3.66V288.64h3.33l4,7.64,1.51,3.06v-10.7h3.62v18.65Z" transform="translate(-172.54 -288.16)"/><path class="cls-1" d="M516.41,307.29l-.51-1.71a4.33,4.33,0,0,1-4,2.18,5.2,5.2,0,0,1-5.57-5.43V293.6c0-2.78,2.21-5.41,6.18-5.41s6,2.49,6,5.41V295h-3.87v-1.52a1.86,1.86,0,0,0-2.1-1.93,2,2,0,0,0-2.15,2v8.85a2.21,2.21,0,0,0,4.39,0v-1.93H512.6v-2.75h6v9.58Z" transform="translate(-172.54 -288.16)"/><path class="cls-1" d="M532.08,307.29h-6.21V288.64h6.21c3.87,0,5.94,2.49,5.94,5.6v7.67C538,305.05,536,307.29,532.08,307.29Zm1.94-13c0-1.48-.7-2.35-2.24-2.35h-1.91v12h1.91c1.54,0,2.24-.87,2.24-2.36Z" transform="translate(-172.54 -288.16)"/><path class="cls-1" d="M540.51,307.29V288.64H550.9V292h-6.38v4.09h4.39v3h-4.39v4.68h6.38v3.5Z" transform="translate(-172.54 -288.16)"/><path class="cls-1" d="M565.8,307.29V294.07l-.93,4.23-2.24,9h-3l-2.13-9-.9-4.23v13.22H553V288.64h5.38l2.24,9.49.67,3.28.7-3.28,2.21-9.49h5.35v18.65Z" transform="translate(-172.54 -288.16)"/><path class="cls-1" d="M580.19,307.29l-.78-3.7h-3.87l-.78,3.7H571l4.36-18.65h4.48l4.34,18.65Zm-2.63-13.47-1.43,6.8h2.74Z" transform="translate(-172.54 -288.16)"/><path class="cls-1" d="M595,307.29l-4.12-7.48-1.59-3.05v10.53h-3.67V288.64H589l4,7.64,1.52,3.06v-10.7h3.61v18.65Z" transform="translate(-172.54 -288.16)"/><path class="cls-1" d="M607,307.29h-6.22V288.64H607c3.86,0,5.94,2.49,5.94,5.6v7.67C613,305.05,610.9,307.29,607,307.29Zm1.93-13c0-1.48-.7-2.35-2.24-2.35h-1.9v12h1.9c1.54,0,2.24-.87,2.24-2.36Z" transform="translate(-172.54 -288.16)"/></svg>