<?xml version="1.0" standalone="no"?>
<!DOCTYPE svg PUBLIC "-//W3C//DTD SVG 1.1//EN" "http://www.w3.org/Graphics/SVG/1.1/DTD/svg11.dtd" >
<svg xmlns="http://www.w3.org/2000/svg" xmlns:xlink="http://www.w3.org/1999/xlink" version="1.1">
<metadata>
Created by FontForge 20161013 at Tue May  1 12:30:43 2007
 By ,,,
HTF Knockout   1990-9 The Hoefler Type Foundry, Inc. http://www.typography.com
</metadata>
<defs>
<font id="Knockout-HTF32-JuniorCruiserwt" horiz-adv-x="669" >
  <font-face 
    font-family="Knockout HTF32-JuniorCruiserwt"
    font-weight="500"
    font-stretch="normal"
    units-per-em="1000"
    panose-1="0 0 0 0 0 0 0 0 0 0"
    ascent="800"
    descent="-200"
    x-height="468"
    cap-height="666"
    bbox="-197 -253 1038 878"
    underline-thickness="55"
    underline-position="-213"
    unicode-range="U+0020-00FF"
  />
<missing-glyph horiz-adv-x="500" 
 />
    <glyph glyph-name=".notdef" horiz-adv-x="500" 
 />
    <glyph glyph-name=".null" horiz-adv-x="0" 
 />
    <glyph glyph-name="nonmarkingreturn" horiz-adv-x="333" 
 />
    <glyph glyph-name="space" unicode=" " horiz-adv-x="260" 
 />
    <glyph glyph-name="exclam" unicode="!" horiz-adv-x="246" 
d="M181 431l-40 -221h-35l-40 221v235h115v-235zM175 0h-104v115h104v-115z" />
    <glyph glyph-name="quotedbl" unicode="&#x22;" horiz-adv-x="373" 
d="M366 666l-97 -215h-71l66 215h102zM201 666l-81 -215h-71l51 215h101z" />
    <glyph glyph-name="numbersign" unicode="#" horiz-adv-x="724" 
d="M686 421h-150l-34 -176h153v-72h-167l-33 -173h-80l33 173h-151l-33 -173h-81l33 173h-138v72h152l33 176h-154v72h168l33 173h81l-33 -173h150l34 173h80l-32 -173h136v-72zM455 421h-151l-33 -176h150z" />
    <glyph glyph-name="dollar" unicode="$" horiz-adv-x="654" 
d="M599 179q0 -78 -58 -131t-154 -66v-98h-104v97q-148 17 -247 119l70 79q112 -105 229 -105q74 0 112.5 28.5t38.5 70.5q0 34 -31 59t-77.5 38.5t-100.5 31t-100.5 36.5t-77.5 56.5t-31 88.5q0 78 57.5 133t157.5 67v99h104v-99q138 -18 217 -114l-80 -67q-79 89 -193 89
q-69 0 -109.5 -26.5t-40.5 -68.5q0 -31 31 -53.5t77.5 -35.5t100.5 -31.5t100.5 -39.5t77.5 -61.5t31 -95.5z" />
    <glyph glyph-name="percent" unicode="%" horiz-adv-x="747" 
d="M708 122q0 -66 -37.5 -104.5t-99.5 -38.5t-99.5 38.5t-37.5 104.5v68q0 65 37.5 103.5t99.5 38.5t99.5 -38.5t37.5 -103.5v-68zM630 107v98q0 30 -16 47t-43 17q-29 0 -45 -17t-16 -47v-98q0 -31 16 -48t45 -17q27 0 43 17t16 48zM654 657l-508 -685l-48 37l509 684z
M318 476q0 -66 -37 -104t-99 -38q-63 0 -100 38t-37 104v68q0 66 37.5 104.5t99.5 38.5t99 -38.5t37 -104.5v-68zM241 461v98q0 30 -16.5 47.5t-42.5 17.5q-28 0 -44.5 -17.5t-16.5 -47.5v-98q0 -30 16 -47t45 -17q27 0 43 17t16 47z" />
    <glyph glyph-name="ampersand" unicode="&#x26;" horiz-adv-x="760" 
d="M732 17q-41 -38 -99 -38q-77 0 -166 67q-93 -67 -208 -67q-95 0 -154.5 51t-59.5 128q0 64 44.5 118t120.5 88q-35 76 -35 131q0 83 53 137.5t143 54.5q82 0 129 -47.5t47 -116.5q0 -62 -51 -114t-143 -85q51 -83 119 -153q41 44 71.5 96t43.5 90l85 -31
q-23 -95 -127 -215q53 -39 94 -39q32 0 55 15zM445 521q0 33 -19.5 54.5t-55.5 21.5q-40 0 -64.5 -27t-24.5 -72q0 -42 31 -106q66 27 99.5 61t33.5 68zM397 108q-81 78 -145 180q-92 -41 -92 -118q0 -46 33.5 -72t94.5 -26q58 0 109 36z" />
    <glyph glyph-name="quotesingle" unicode="'" horiz-adv-x="230" 
d="M218 666l-94 -215h-67l46 215h115z" />
    <glyph glyph-name="parenleft" unicode="(" horiz-adv-x="382" 
d="M415 -172l-28 -35q-143 93 -219.5 225.5t-76.5 279.5q0 148 76.5 280t220.5 225l28 -35q-101 -90 -158 -210t-57 -260q0 -139 56.5 -259t157.5 -211z" />
    <glyph glyph-name="parenright" unicode=")" horiz-adv-x="382" 
d="M291 298q0 -148 -76 -280t-220 -225l-28 35q101 91 158 210.5t57 259.5t-57.5 260t-158.5 210l28 35q144 -93 220.5 -225t76.5 -280z" />
    <glyph glyph-name="asterisk" unicode="*" horiz-adv-x="390" 
d="M346 444l-22 -39q-6 -13 -22 -4q-44 25 -83 64q14 -55 14 -106q0 -16 -14 -16h-46q-14 0 -14 16q0 52 14 105q-40 -39 -84 -65q-15 -9 -22 4l-22 40q-9 12 7 20q47 27 97 40q-48 14 -98 41q-15 10 -7 20l22 40q6 11 22 4q45 -27 84 -64q-15 53 -15 105q0 17 15 17h45
q14 0 14 -17q0 -52 -14 -105q42 41 84 65q15 9 22 -4l23 -39q6 -13 -8 -21q-43 -24 -97 -40q52 -15 98 -40q14 -9 7 -21z" />
    <glyph glyph-name="plus" unicode="+" horiz-adv-x="456" 
d="M404 292h-130v-137h-91v137h-130v87h130v137h91v-137h130v-87z" />
    <glyph glyph-name="comma" unicode="," horiz-adv-x="255" 
d="M180 13q0 -56 -32.5 -94t-101.5 -38v32q35 0 55.5 23.5t20.5 63.5h-47v116h105v-103z" />
    <glyph glyph-name="hyphen" unicode="-" horiz-adv-x="399" 
d="M348 255h-298v88h298v-88z" />
    <glyph glyph-name="period" unicode="." horiz-adv-x="255" 
d="M180 0h-105v116h105v-116z" />
    <glyph glyph-name="slash" unicode="/" horiz-adv-x="380" 
d="M366 729l-268 -828h-78l269 828h77z" />
    <glyph glyph-name="zero" unicode="0" horiz-adv-x="679" 
d="M622 248q0 -113 -76.5 -191.5t-205.5 -78.5q-130 0 -206.5 78.5t-76.5 191.5v168q0 114 76.5 192t206.5 78t206 -78t76 -192v-168zM511 247v171q0 73 -44 122t-127 49t-127 -49t-44 -122v-171q0 -72 44 -121.5t127 -49.5t127 49.5t44 121.5z" />
    <glyph glyph-name="one" unicode="1" horiz-adv-x="303" 
d="M208 0h-112v611q58 0 58 55h54v-666z" />
    <glyph glyph-name="two" unicode="2" horiz-adv-x="601" 
d="M549 0h-505v38q0 65 29.5 119t73.5 87.5t95.5 65.5t95.5 55t73.5 54t29.5 64q0 45 -36 77t-102 32q-58 0 -96 -25.5t-76 -79.5l-80 58q88 142 253 142q117 0 182 -58.5t65 -141.5q0 -52 -33.5 -95.5t-85 -75.5t-104.5 -62t-99.5 -69.5t-63.5 -84.5h384v-100z" />
    <glyph glyph-name="three" unicode="3" horiz-adv-x="596" 
d="M544 172q0 -77 -66 -135t-176 -58q-167 0 -261 142l81 59q76 -105 172 -105q72 0 106.5 29.5t34.5 75.5v19q0 40 -35.5 67.5t-106.5 27.5h-74v87h74q72 0 107 26.5t35 66.5v12q0 47 -36.5 76t-106.5 29q-93 0 -163 -102l-78 56q90 142 249 142q112 0 178 -55.5t66 -135.5
v-6q0 -55 -35.5 -96t-105.5 -53q71 -15 106 -54t35 -93v-22z" />
    <glyph glyph-name="four" unicode="4" horiz-adv-x="613" 
d="M576 166h-105v-166h-105v166h-335v79l351 421h89v-407h105v-93zM366 259v251l-205 -251h205z" />
    <glyph glyph-name="five" unicode="5" horiz-adv-x="614" 
d="M565 189q0 -89 -71.5 -149.5t-185.5 -60.5q-169 0 -263 142l81 59q76 -105 179 -105q150 0 150 117v43q0 55 -33 85.5t-95 30.5q-96 0 -168 -75l-85 23l25 367h453q-5 -57 -26 -77.5t-77 -20.5h-258l-15 -192q73 65 178 65q100 0 155.5 -55t55.5 -143v-54z" />
    <glyph glyph-name="six" unicode="6" horiz-adv-x="630" 
d="M581 197q0 -93 -67.5 -156t-182.5 -63q-122 0 -196.5 75.5t-74.5 193.5v158q0 120 78.5 201t200.5 81q163 0 241 -125l-81 -59q-62 89 -159 89q-84 0 -127.5 -46.5t-43.5 -126.5v-75q75 87 188 87q103 0 163.5 -55t60.5 -143v-36zM473 186v35q0 57 -37 91t-99 34
q-107 0 -165 -84v-44q3 -59 46.5 -102t110.5 -43q66 0 105 31.5t39 81.5z" />
    <glyph glyph-name="seven" unicode="7" horiz-adv-x="584" 
d="M568 586q-259 -268 -300 -586h-119q15 140 97.5 299.5t199.5 268.5h-404v98h526v-80z" />
    <glyph glyph-name="eight" unicode="8" horiz-adv-x="645" 
d="M585 164q0 -79 -70.5 -132t-191.5 -53t-192 53t-71 132v28q0 49 34 88.5t94 54.5q-58 17 -88.5 55.5t-30.5 88.5v21q0 80 66.5 133.5t187.5 53.5t187 -53.5t66 -133.5v-21q0 -49 -30.5 -86.5t-88.5 -54.5q60 -15 94 -55.5t34 -90.5v-28zM474 477v16q0 45 -39.5 73.5
t-111.5 28.5q-73 0 -112.5 -28.5t-39.5 -73.5v-16q0 -41 41.5 -71.5t110.5 -30.5t110 30.5t41 71.5zM477 176v20q0 40 -41.5 70.5t-112.5 30.5q-72 0 -113.5 -30.5t-41.5 -70.5v-20q0 -48 41 -76t114 -28t113.5 28t40.5 76z" />
    <glyph glyph-name="nine" unicode="9" horiz-adv-x="639" 
d="M579 261q0 -124 -69 -203t-205 -79q-84 0 -149 32.5t-102 92.5l81 59q63 -90 169 -90q165 0 165 174v70q-74 -79 -182 -79q-107 0 -168 55t-61 145v26q0 93 69 158t184 65q123 0 195.5 -73.5t72.5 -194.5v-158zM467 404v44q0 59 -44.5 101.5t-112.5 42.5t-106 -32.5
t-38 -94.5v-10q0 -129 142 -129q105 0 159 78z" />
    <glyph glyph-name="colon" unicode=":" horiz-adv-x="255" 
d="M180 329h-105v116h105v-116zM180 0h-105v116h105v-116z" />
    <glyph glyph-name="semicolon" unicode=";" horiz-adv-x="255" 
d="M180 329h-105v116h105v-116zM180 13q0 -56 -32.5 -94t-101.5 -38v32q35 0 55.5 23.5t20.5 63.5h-47v116h105v-103z" />
    <glyph glyph-name="less" unicode="&#x3c;" horiz-adv-x="545" 
d="M460 65l-401 254v29l401 253v-108l-258 -160l258 -160v-108z" />
    <glyph glyph-name="equal" unicode="=" horiz-adv-x="457" 
d="M404 380h-351v91h351v-91zM404 200h-351v90h351v-90z" />
    <glyph glyph-name="greater" unicode="&#x3e;" horiz-adv-x="545" 
d="M487 319l-401 -254v108l258 160l-258 160v108l401 -253v-29z" />
    <glyph glyph-name="question" unicode="?" horiz-adv-x="532" 
d="M501 504q0 -45 -23 -80t-55.5 -57t-64.5 -42.5t-55 -47.5t-23 -60h-93q0 45 21 80t50.5 58t59 43t50.5 45.5t21 55.5q0 43 -32.5 68t-91.5 25q-52 0 -92.5 -23.5t-80.5 -68.5l-72 56q101 131 243 131q112 0 175 -53t63 -130zM284 0h-105v115h105v-115z" />
    <glyph glyph-name="at" unicode="@" horiz-adv-x="781" 
d="M738 386q0 -94 -54 -162.5t-147 -68.5q-41 0 -69.5 24.5t-27.5 61.5q-47 -77 -116 -77q-49 0 -78 32t-29 85q0 75 57.5 147t133.5 72q68 0 78 -61l19 54h84l-71 -209q-13 -33 -2.5 -54t42.5 -21q51 0 86 48t35 128q0 110 -77.5 180t-197.5 70q-128 0 -211.5 -87.5
t-83.5 -214.5q0 -130 83 -216t212 -86q120 0 201 75l34 -42q-98 -85 -235 -85q-152 0 -253 101t-101 252q0 148 101.5 251.5t252.5 103.5q83 0 150 -29t105.5 -74.5t58.5 -96.5t20 -101zM468 392q0 58 -46 58q-49 0 -83.5 -55t-34.5 -112q0 -29 14 -44.5t37 -15.5
q55 0 85 86z" />
    <glyph glyph-name="A" unicode="A" 
d="M659 0h-121l-65 168h-281l-63 -168h-118l268 666h108zM437 258l-107 271l-104 -271h211z" />
    <glyph glyph-name="B" unicode="B" horiz-adv-x="668" 
d="M615 172q0 -80 -56 -126t-164 -46h-316v666h311q108 0 161.5 -45t53.5 -124v-16q0 -57 -30.5 -94.5t-88.5 -48.5q65 -11 97 -49t32 -90v-27zM493 465v21q0 83 -98 83h-200v-193h191q53 0 80 24t27 65zM496 178v24q0 89 -107 89h-194v-196h203q98 0 98 83z" />
    <glyph glyph-name="C" unicode="C" horiz-adv-x="682" 
d="M652 508l-97 -43q-27 53 -74.5 87.5t-114.5 34.5q-93 0 -144.5 -53t-51.5 -139v-128q0 -84 52.5 -136t147.5 -52q66 0 114 33.5t73 90.5l95 -43q-32 -76 -107 -128.5t-181 -52.5q-145 0 -227.5 83.5t-82.5 208.5v120q0 126 85 211t229 85q102 0 179 -53t105 -126z" />
    <glyph glyph-name="D" unicode="D" horiz-adv-x="708" 
d="M654 259q0 -111 -79.5 -185t-216.5 -74h-279v666h279q137 0 216.5 -74t79.5 -186v-147zM539 266v134q0 75 -49.5 120.5t-137.5 45.5h-158v-466h158q88 0 137.5 45.5t49.5 120.5z" />
    <glyph glyph-name="E" unicode="E" horiz-adv-x="608" 
d="M561 0h-482v666h482v-100h-367v-173h276v-95h-276v-198h367v-100z" />
    <glyph glyph-name="F" unicode="F" horiz-adv-x="587" 
d="M554 566h-360v-191h271v-96h-271v-279h-115v666h475v-100z" />
    <glyph glyph-name="G" unicode="G" horiz-adv-x="703" 
d="M644 0h-68l-19 78q-73 -99 -208 -99q-138 0 -216.5 83t-78.5 208v121q0 125 85 210.5t228 85.5q105 0 170.5 -43t108.5 -126l-96 -51q-65 120 -183 120q-94 0 -145.5 -53.5t-51.5 -134.5v-133q0 -82 51.5 -134.5t141.5 -52.5q73 0 118.5 44t45.5 108v25h-155v94h272v-350
z" />
    <glyph glyph-name="H" unicode="H" horiz-adv-x="731" 
d="M652 0h-115v288h-343v-288h-115v666h115v-282h343v282h115v-666z" />
    <glyph glyph-name="I" unicode="I" horiz-adv-x="273" 
d="M194 0h-115v666h115v-666z" />
    <glyph glyph-name="J" unicode="J" horiz-adv-x="582" 
d="M509 204q0 -99 -60 -162t-172 -63q-179 0 -245 157l94 53q56 -110 149 -110q118 0 118 126v461h116v-462z" />
    <glyph glyph-name="K" unicode="K" horiz-adv-x="671" 
d="M653 0h-140l-233 293l-86 -84v-209h-115v666h115v-327l317 327h138l-294 -298q20 -19 94.5 -111t138.5 -175z" />
    <glyph glyph-name="L" unicode="L" horiz-adv-x="604" 
d="M579 0h-500v666h115v-566h385v-100z" />
    <glyph glyph-name="M" unicode="M" horiz-adv-x="907" 
d="M828 0h-110v517l-33 -85l-192 -432h-83l-190 432l-33 85v-517h-108v666h160l185 -438l31 -82l31 81l183 439h159v-666z" />
    <glyph glyph-name="N" unicode="N" horiz-adv-x="728" 
d="M649 0h-91l-312 396l-55 76v-472h-112v666h101l303 -399l54 -75v474h112v-666z" />
    <glyph glyph-name="O" unicode="O" horiz-adv-x="712" 
d="M658 261q0 -118 -81.5 -200t-220.5 -82t-220.5 82t-81.5 200v145q0 118 81 199.5t221 81.5t221 -81.5t81 -199.5v-145zM542 260v147q0 78 -49 129t-137 51t-137 -51t-49 -129v-147q0 -78 49 -129.5t137 -51.5t137 51.5t49 129.5z" />
    <glyph glyph-name="P" unicode="P" horiz-adv-x="647" 
d="M606 443q0 -87 -57.5 -138t-176.5 -51h-178v-254h-115v666h293q119 0 176.5 -51.5t57.5 -139.5v-32zM490 441v35q0 90 -109 90h-187v-217h190q106 0 106 92z" />
    <glyph glyph-name="Q" unicode="Q" horiz-adv-x="722" 
d="M608 97q27 -26 49.5 -36t53.5 -10v-68q-27 -13 -63 -13q-56 0 -112 58q-76 -50 -180 -50q-139 0 -220.5 82t-81.5 200v145q0 119 81 200t221 81t221 -81t81 -200v-145q0 -92 -50 -163zM525 176q17 39 17 83v148q0 78 -49 129t-137 51t-137 -51t-49 -129v-148
q0 -78 49 -129.5t137 -51.5q58 0 101 24l-23 22l-48 46l-23 23l80 60z" />
    <glyph glyph-name="R" unicode="R" horiz-adv-x="675" 
d="M642 -4h-67q-44 0 -64 25.5t-22 78.5l-2 88q-2 47 -27.5 68.5t-90.5 21.5h-175v-278h-115v666h293q119 0 177 -47t58 -127v-22q0 -123 -135 -148q132 -12 132 -136l1 -78q0 -48 37 -70v-42zM490 455v30q0 37 -26 60.5t-83 23.5h-187v-206h187q53 0 81 25t28 67z" />
    <glyph glyph-name="S" unicode="S" horiz-adv-x="650" 
d="M606 186q0 -91 -76.5 -149t-198.5 -58q-154 0 -299 118l74 83q67 -55 123 -78t125 -23q66 0 101 26.5t35 70.5q0 34 -32 58t-80 35.5t-104 28t-104 35t-80 57.5t-32 95q0 87 74 144.5t198 57.5q92 0 164.5 -34.5t114.5 -96.5l-80 -67q-84 98 -199 98q-70 0 -113.5 -24.5
t-43.5 -66.5q0 -36 44.5 -60.5t108 -41.5t127.5 -38t108.5 -64t44.5 -106z" />
    <glyph glyph-name="T" unicode="T" horiz-adv-x="637" 
d="M603 566h-227v-566h-115v566h-227v100h569v-100z" />
    <glyph glyph-name="U" unicode="U" horiz-adv-x="715" 
d="M642 228q0 -112 -74 -180.5t-212 -68.5q-136 0 -209.5 67.5t-73.5 181.5v438h116v-438q0 -149 171 -149q166 0 166 149v438h116v-438z" />
    <glyph glyph-name="V" unicode="V" horiz-adv-x="683" 
d="M673 666l-283 -666h-100l-276 666h124l207 -524l205 524h123z" />
    <glyph glyph-name="W" unicode="W" horiz-adv-x="992" 
d="M984 666l-219 -666h-107l-160 491l-164 -491h-108l-212 666h122l147 -509l167 509h100l167 -509l148 509h119z" />
    <glyph glyph-name="X" unicode="X" horiz-adv-x="671" 
d="M643 666l-235 -328l240 -338h-132l-179 260l-177 -260h-129l240 336l-235 330h132l174 -254l172 254h129z" />
    <glyph glyph-name="Y" unicode="Y" horiz-adv-x="641" 
d="M639 666l-259 -398v-268h-115v269l-263 397h132l193 -307l185 307h127z" />
    <glyph glyph-name="Z" unicode="Z" horiz-adv-x="648" 
d="M607 626l-393 -526h386v-100h-559v40l395 526h-376v100h547v-40z" />
    <glyph glyph-name="bracketleft" unicode="[" horiz-adv-x="369" 
d="M378 -189h-264v975h264v-86h-167v-804h167v-85z" />
    <glyph glyph-name="backslash" unicode="\" horiz-adv-x="379" 
d="M363 -99h-77l-269 828h78z" />
    <glyph glyph-name="bracketright" unicode="]" horiz-adv-x="369" 
d="M255 -189h-264v85h167v804h-167v86h264v-975z" />
    <glyph glyph-name="asciicircum" unicode="^" horiz-adv-x="396" 
d="M367 531q-27 -8 -55 -8q-41 0 -73.5 26.5t-43.5 67.5q-11 -41 -43 -67.5t-74 -26.5q-21 0 -48 8v30q37 0 68.5 27.5t46.5 77.5h106q15 -50 47 -77.5t69 -27.5v-30z" />
    <glyph glyph-name="underscore" unicode="_" horiz-adv-x="528" 
d="M520 -83h-512v83h512v-83z" />
    <glyph glyph-name="grave" unicode="`" horiz-adv-x="256" 
d="M203 549h-64l-100 149h114z" />
    <glyph glyph-name="a" unicode="a" horiz-adv-x="544" 
d="M520 -8h-38q-40 0 -65 19t-24 62q-67 -81 -181 -81q-76 0 -122 36.5t-46 98.5v4q0 86 93.5 121t230.5 15v36q0 45 -24.5 70t-70.5 25q-79 0 -126 -79l-77 40q66 120 198 120q101 0 151.5 -50.5t50.5 -139.5v-186q0 -20 10.5 -28t39.5 -8v-75zM368 162v42q-106 16 -163 -3
t-57 -67v-2q0 -26 23 -43.5t60 -17.5q50 0 93.5 26.5t43.5 64.5z" />
    <glyph glyph-name="b" unicode="b" horiz-adv-x="576" 
d="M528 189q0 -84 -55.5 -140.5t-140.5 -56.5q-58 0 -106 24.5t-66 70.5l-24 -87h-63v666h104v-276q57 89 169 89q81 0 131.5 -56.5t50.5 -138.5v-95zM422 195v78q0 62 -31 94.5t-87 32.5q-55 0 -89.5 -35t-34.5 -93v-82q0 -57 37 -89.5t86 -32.5q56 0 87.5 32.5t31.5 94.5z
" />
    <glyph glyph-name="c" unicode="c" horiz-adv-x="523" 
d="M491 134q-59 -142 -212 -142q-101 0 -165.5 58.5t-64.5 151.5v63q0 93 66.5 153.5t165.5 60.5q82 0 136.5 -38t73.5 -109l-90 -23q-11 41 -42 64.5t-76 23.5q-57 0 -93 -34.5t-36 -93.5v-66q0 -62 36 -95.5t93 -33.5q44 0 76 25.5t44 64.5z" />
    <glyph glyph-name="d" unicode="d" horiz-adv-x="566" 
d="M504 0h-74l-12 88q-20 -46 -66.5 -71t-103.5 -25q-88 0 -143.5 55.5t-55.5 140.5v89q0 85 57.5 143.5t137.5 58.5q100 0 156 -70v257h104v-666zM397 191v83q0 55 -33.5 90.5t-89.5 35.5t-87.5 -32.5t-31.5 -93.5v-78q0 -60 32 -92.5t87 -32.5q52 0 87.5 32t35.5 88z" />
    <glyph glyph-name="e" unicode="e" horiz-adv-x="537" 
d="M494 225h-340v-45q0 -47 35.5 -78t93.5 -31q44 0 75.5 25t45.5 65l86 -30q-58 -139 -213 -139q-101 0 -164.5 56t-63.5 148v75q0 91 60.5 149.5t163.5 58.5t162 -58t59 -152v-44zM393 280v20q0 40 -33 70t-85 30q-54 0 -87.5 -28.5t-33.5 -71.5v-20h239z" />
    <glyph glyph-name="f" unicode="f" horiz-adv-x="345" 
d="M327 388h-106v-388h-108v388h-82v77h82v25q0 85 45 133.5t137 48.5h37v-81h-31q-83 0 -83 -91v-35h109v-77z" />
    <glyph glyph-name="g" unicode="g" horiz-adv-x="535" 
d="M525 478q0 -67 -61 -67q-25 0 -37 5q44 -31 44 -84v-6q0 -63 -55 -101.5t-148 -38.5q-39 0 -68 8q-32 0 -49.5 -12t-17.5 -28q0 -14 13 -22.5t50.5 -14t101.5 -5.5q221 0 221 -117v-6q0 -58 -68.5 -103.5t-191.5 -45.5q-104 0 -168 30.5t-64 82.5v4q0 32 29 59t89 38
q-99 19 -99 75q0 31 29 56.5t73 31.5q-39 15 -60 45t-21 67v3q0 62 58.5 104.5t142.5 42.5q47 0 110 -18q37 -8 50.5 10t13.5 56h78q5 -24 5 -49zM372 331v2q0 33 -26 54.5t-78 21.5q-51 0 -78 -22t-27 -54v-2q0 -32 27 -54t78 -22q52 0 78 21.5t26 54.5zM416 -18v3
q0 27 -28 40.5t-95 13.5q-87 0 -126.5 -17.5t-39.5 -44.5v-3q0 -56 137 -56q73 0 112.5 18t39.5 46z" />
    <glyph glyph-name="h" unicode="h" horiz-adv-x="577" 
d="M510 0h-108v303q0 97 -87 97q-55 0 -96 -52.5t-41 -111.5v-236h-105v666h105v-304q29 59 77 88t105 29q69 0 109.5 -46.5t40.5 -120.5v-312z" />
    <glyph glyph-name="i" unicode="i" horiz-adv-x="253" 
d="M178 549h-102v95h102v-95zM181 0h-108v468h108v-468z" />
    <glyph glyph-name="j" unicode="j" horiz-adv-x="253" 
d="M178 549h-102v95h102v-95zM181 14q0 -80 -39.5 -124t-131.5 -44h-42v74h23q49 0 65.5 18.5t16.5 61.5v468h108v-454z" />
    <glyph glyph-name="k" unicode="k" horiz-adv-x="529" 
d="M515 0h-113l-139 210l-90 -98v-112h-105v666h105v-439l210 241h116l-171 -194z" />
    <glyph glyph-name="l" unicode="l" horiz-adv-x="250" 
d="M178 0h-105v666h105v-666z" />
    <glyph glyph-name="m" unicode="m" horiz-adv-x="828" 
d="M761 0h-108v309q0 91 -69 91q-51 0 -82 -55t-31 -112v-233h-108v309q0 91 -69 91q-51 0 -82 -55t-31 -112v-233h-108v468h94l3 -119q60 130 171 130q48 0 81.5 -33t43.5 -84q59 117 165 117q64 0 97 -44t33 -117v-318z" />
    <glyph glyph-name="n" unicode="n" horiz-adv-x="588" 
d="M520 0h-108v303q0 97 -89 97q-54 0 -98 -54.5t-44 -112.5v-233h-108v468h94l3 -134q65 145 193 145q74 0 115.5 -46t41.5 -121v-312z" />
    <glyph glyph-name="o" unicode="o" horiz-adv-x="558" 
d="M509 202q0 -98 -65 -154t-165 -56t-165 56t-65 154v65q0 98 65 155t165 57t165 -57t65 -155v-65zM403 199v72q0 60 -32.5 94.5t-91.5 34.5t-91.5 -34.5t-32.5 -94.5v-72q0 -60 32.5 -94t91.5 -34t91.5 34t32.5 94z" />
    <glyph glyph-name="p" unicode="p" horiz-adv-x="577" 
d="M528 185q0 -79 -56 -136t-133 -57q-103 0 -162 69v-212h-104v619h74l12 -88q20 46 68.5 72.5t105.5 26.5q86 0 140.5 -56t54.5 -142v-96zM422 198v78q0 59 -32 91.5t-87 32.5q-53 0 -88 -33.5t-35 -92.5v-81q0 -56 36 -89t87 -33q55 0 87 33t32 94z" />
    <glyph glyph-name="q" unicode="q" horiz-adv-x="572" 
d="M504 -151h-104v220q-57 -77 -165 -77q-79 0 -132.5 55.5t-53.5 134.5v99q0 83 58.5 141t141.5 58q59 0 104 -25.5t65 -74.5l17 88h69v-619zM397 194v81q0 56 -34.5 90.5t-88.5 34.5q-56 0 -87.5 -32t-31.5 -93v-76q0 -60 32.5 -94t86.5 -34q53 0 88 34t35 89z" />
    <glyph glyph-name="r" unicode="r" horiz-adv-x="380" 
d="M360 374q-89 15 -134.5 -9.5t-45.5 -72.5v-292h-107v468h93l4 -108q28 72 71 95.5t119 15.5v-97z" />
    <glyph glyph-name="s" unicode="s" horiz-adv-x="496" 
d="M457 355l-86 -29q-14 33 -45.5 53.5t-74.5 20.5q-47 0 -76.5 -17t-29.5 -41q0 -22 23 -36t58 -20t75.5 -15.5t75.5 -22t58 -40.5t23 -70q0 -58 -53.5 -102t-154.5 -44q-153 0 -223 122l81 43q45 -86 147 -86q105 0 105 62q0 27 -32 42t-78 23t-92 19.5t-78 41t-32 76.5
q0 57 55 100.5t147 43.5q145 0 207 -124z" />
    <glyph glyph-name="t" unicode="t" horiz-adv-x="350" 
d="M320 388h-100v-240q0 -90 51 -148h-120q-39 49 -39 148v240h-82v77h84v84l106 36v-120h100v-77z" />
    <glyph glyph-name="u" unicode="u" horiz-adv-x="583" 
d="M518 0h-93l-4 120q-61 -128 -186 -128q-79 0 -121.5 44.5t-42.5 120.5v311h108v-300q0 -47 24.5 -72t70.5 -25q54 0 95.5 50t41.5 108v239h107v-468z" />
    <glyph glyph-name="v" unicode="v" horiz-adv-x="514" 
d="M501 468l-198 -468h-95l-197 468h115l90 -247l43 -115l43 115l89 247h110z" />
    <glyph glyph-name="w" unicode="w" horiz-adv-x="766" 
d="M753 468l-169 -468h-89l-88 264l-26 79l-26 -79l-85 -264h-89l-169 468h109l82 -271l23 -86l23 86l87 271h98l83 -271l23 -86l23 86l87 271h103z" />
    <glyph glyph-name="x" unicode="x" horiz-adv-x="508" 
d="M497 0h-116l-124 168l-126 -168h-114l185 231l-185 237h117l125 -167l125 167h113l-184 -231z" />
    <glyph glyph-name="y" unicode="y" horiz-adv-x="514" 
d="M500 468l-174 -431q-28 -59 -45 -88.5t-42.5 -56.5t-57.5 -36.5t-79 -9.5h-42v76h39q41 0 61 14t34 45l9 23l-192 464h111l93 -247l42 -113l42 113l90 247h111z" />
    <glyph glyph-name="z" unicode="z" horiz-adv-x="498" 
d="M459 411l-288 -330h281v-81h-414v57l289 330h-280v81h412v-57z" />
    <glyph glyph-name="braceleft" unicode="{" horiz-adv-x="404" 
d="M347 -189h-59q-82 0 -125.5 44t-43.5 109q0 48 22.5 95.5t45 85.5t22.5 62q0 30 -16.5 43t-59.5 13h-39v73h39q43 0 59.5 11.5t16.5 41.5q0 24 -22.5 61.5t-45 85t-22.5 95.5q0 67 43.5 111t125.5 44h59v-89h-53q-70 0 -70 -62q0 -44 34.5 -119.5t34.5 -103.5
q0 -93 -102 -114q102 -21 102 -114q0 -28 -34.5 -103.5t-34.5 -119.5q0 -29 18 -45.5t52 -16.5h53v-88z" />
    <glyph glyph-name="bar" unicode="|" horiz-adv-x="193" 
d="M135 -99h-77v828h77v-828z" />
    <glyph glyph-name="braceright" unicode="}" horiz-adv-x="404" 
d="M311 263h-40q-42 0 -58.5 -13t-16.5 -43q0 -24 22 -62t44.5 -85.5t22.5 -95.5q0 -65 -43 -109t-125 -44h-60v88h53q34 0 52 16.5t18 45.5q0 44 -34.5 119.5t-34.5 103.5q0 93 102 114q-102 21 -102 114q0 28 34.5 103.5t34.5 119.5q0 62 -70 62h-53v89h60q82 0 125 -44
t43 -111q0 -48 -22.5 -95.5t-44.5 -85t-22 -61.5q0 -30 16.5 -41.5t58.5 -11.5h40v-73z" />
    <glyph glyph-name="asciitilde" unicode="~" horiz-adv-x="402" 
d="M376 355q0 -40 -24 -64.5t-68 -24.5q-33 0 -91 31.5t-72 31.5q-25 0 -25 -32v-31h-55q-13 21 -13 45q0 41 23.5 65t67.5 24q33 0 91 -31t72 -31q25 0 25 32v31h55q14 -25 14 -46z" />
    <glyph glyph-name="quotesinglbase" horiz-adv-x="235" 
d="M170 13q0 -56 -32.5 -94t-101.5 -38v32q35 0 55.5 23.5t20.5 63.5h-47v116h105v-103z" />
    <glyph glyph-name="florin" horiz-adv-x="459" 
d="M283 383h129v-87h-129v-125q0 -92 -43 -142t-132 -50h-50v93h31q51 0 69 20.5t18 70.5v133h-122v87h122v95q0 89 47.5 141.5t135.5 52.5h46v-93h-26q-54 0 -75 -22.5t-21 -68.5v-105z" />
    <glyph glyph-name="quotedblbase" horiz-adv-x="392" 
d="M332 13q0 -56 -32.5 -94t-101.5 -38v32q35 0 55.5 23.5t20.5 63.5h-47v116h105v-103zM170 13q0 -56 -32.5 -94t-101.5 -38v32q35 0 55.5 23.5t20.5 63.5h-47v116h105v-103z" />
    <glyph glyph-name="ellipsis" unicode="&#x85;" horiz-adv-x="711" 
d="M636 0h-105v116h105v-116zM408 0h-105v116h105v-116zM180 0h-105v116h105v-116z" />
    <glyph glyph-name="dagger" horiz-adv-x="473" 
d="M435 411q0 -13 -16 -13q-105 0 -153 13q13 -53 13 -171q0 -201 -10 -296q-2 -16 -14 -16h-37q-14 0 -14 16q-10 95 -10 296q0 118 13 171q-48 -13 -153 -13q-16 0 -16 13v59q0 13 16 13q101 0 153 -13q-13 48 -13 180q0 16 13 16h59q13 0 13 -16q0 -132 -13 -180
q52 13 153 13q16 0 16 -13v-59z" />
    <glyph glyph-name="daggerdbl" horiz-adv-x="473" 
d="M435 124q0 -13 -16 -13q-101 0 -153 13q13 -49 13 -180q0 -16 -13 -16h-59q-13 0 -13 16q0 131 13 180q-52 -13 -153 -13q-16 0 -16 13v59q0 13 16 13q100 0 153 -13q-13 53 -13 114t13 114q-48 -13 -153 -13q-16 0 -16 13v59q0 13 16 13q101 0 153 -13q-13 48 -13 180
q0 16 13 16h59q13 0 13 -16q0 -132 -13 -180q52 13 153 13q16 0 16 -13v-59q0 -13 -16 -13q-105 0 -153 13q13 -53 13 -114t-13 -114q53 13 153 13q16 0 16 -13v-59z" />
    <glyph glyph-name="circumflex" horiz-adv-x="396" 
d="M367 560q-27 -8 -55 -8q-41 0 -73.5 26.5t-43.5 67.5q-11 -41 -43 -67.5t-74 -26.5q-21 0 -48 8v30q37 0 68.5 27.5t46.5 77.5h106q15 -50 47 -77.5t69 -27.5v-30z" />
    <glyph glyph-name="perthousand" horiz-adv-x="1075" 
d="M1038 122q0 -66 -37.5 -104.5t-99.5 -38.5t-99.5 38.5t-37.5 104.5v68q0 65 37.5 103.5t99.5 38.5t99.5 -38.5t37.5 -103.5v-68zM960 107v98q0 30 -16 47t-43 17q-29 0 -45 -17t-16 -47v-98q0 -31 16 -48t45 -17q27 0 43 17t16 48zM708 122q0 -66 -37.5 -104.5
t-99.5 -38.5t-99.5 38.5t-37.5 104.5v68q0 65 37.5 103.5t99.5 38.5t99.5 -38.5t37.5 -103.5v-68zM630 107v98q0 30 -16 47t-43 17q-29 0 -45 -17t-16 -47v-98q0 -31 16 -48t45 -17q27 0 43 17t16 48zM654 657l-508 -685l-48 37l509 684zM318 476q0 -66 -37 -104t-99 -38
q-63 0 -100 38t-37 104v68q0 66 37.5 104.5t99.5 38.5t99 -38.5t37 -104.5v-68zM241 461v98q0 30 -16.5 47.5t-42.5 17.5q-28 0 -44.5 -17.5t-16.5 -47.5v-98q0 -30 16 -47t45 -17q27 0 43 17t16 47z" />
    <glyph glyph-name="Scaron" horiz-adv-x="650" 
 />
    <glyph glyph-name="guilsinglleft" horiz-adv-x="321" 
d="M270 0h-57q-17 54 -63 104t-109 66v71q63 16 109 66t63 104h57q0 -61 -31 -117.5t-86 -88.5q55 -32 86 -88t31 -117z" />
    <glyph glyph-name="OE" horiz-adv-x="1032" 
d="M986 0h-617q-144 0 -229.5 76.5t-85.5 191.5v128q0 116 85.5 193t229.5 77h617v-100h-367v-173h277v-95h-277v-198h367v-100zM504 98v468h-132q-95 0 -148.5 -45t-53.5 -125v-123q0 -81 53.5 -128t148.5 -47h132z" />
    <glyph glyph-name="Zcaron" horiz-adv-x="648" 
 />
    <glyph glyph-name="quoteleft" horiz-adv-x="220" 
d="M52 539q0 56 32.5 94.5t101.5 38.5v-33q-35 0 -55.5 -23t-20.5 -64h47v-116h-105v103z" />
    <glyph glyph-name="quoteright" horiz-adv-x="220" 
d="M167 564q0 -57 -32 -95t-101 -38v32q35 0 55.5 23.5t20.5 63.5h-47v116h104v-102z" />
    <glyph glyph-name="quotedblleft" horiz-adv-x="382" 
d="M214 539q0 56 32.5 94.5t101.5 38.5v-33q-35 0 -55.5 -23t-20.5 -64h47v-116h-105v103zM52 539q0 56 32.5 94.5t101.5 38.5v-33q-35 0 -55.5 -23t-20.5 -64h47v-116h-105v103z" />
    <glyph glyph-name="quotedblright" horiz-adv-x="382" 
d="M329 564q0 -57 -32 -95t-101 -38v32q35 0 55.5 23.5t20.5 63.5h-47v116h104v-102zM167 564q0 -57 -32 -95t-101 -38v32q35 0 55.5 23.5t20.5 63.5h-47v116h104v-102z" />
    <glyph glyph-name="bullet" horiz-adv-x="404" 
d="M353 333q0 -67 -42 -109.5t-108 -42.5t-108.5 42.5t-42.5 109.5t42.5 109.5t108.5 42.5t108 -42.5t42 -109.5z" />
    <glyph glyph-name="endash" horiz-adv-x="615" 
d="M539 255h-462v83h462v-83z" />
    <glyph glyph-name="emdash" horiz-adv-x="940" 
d="M839 255h-762v83h762v-83z" />
    <glyph glyph-name="tilde" horiz-adv-x="403" 
d="M376 646q0 -39 -24 -63.5t-68 -24.5q-33 0 -91 31.5t-72 31.5q-25 0 -25 -32v-31h-55q-13 21 -13 45q0 40 23.5 64.5t67.5 24.5q33 0 91 -31.5t72 -31.5q25 0 25 33v31h55q14 -25 14 -47z" />
    <glyph glyph-name="trademark" horiz-adv-x="740" 
d="M683 362h-63v229l-22 -73l-55 -156h-54l-53 156l-21 73v-229h-61v304h91l54 -162l20 -69l20 69l53 162h91v-304zM298 609h-96v-247h-68v247h-96v57h260v-57z" />
    <glyph glyph-name="scaron" horiz-adv-x="496" 
 />
    <glyph glyph-name="guilsinglright" horiz-adv-x="321" 
d="M282 170q-63 -16 -109.5 -66t-63.5 -104h-57q0 61 31.5 116.5t85.5 88.5q-54 33 -85.5 89t-31.5 117h57q17 -55 63 -104.5t110 -65.5v-71z" />
    <glyph glyph-name="oe" horiz-adv-x="889" 
d="M846 225h-340v-43q0 -49 35.5 -80t93.5 -31q44 0 75.5 25t45.5 65l86 -30q-58 -139 -207 -139q-121 0 -181 82q-62 -82 -181 -82q-95 0 -159.5 56.5t-64.5 153.5v65q0 97 65 155t159 58q121 0 182 -83q56 82 173 82q100 0 159 -58.5t59 -151.5v-44zM745 280v20
q0 40 -33 70t-85 30q-54 0 -87.5 -28.5t-33.5 -71.5v-20h239zM403 197v78q0 53 -33.5 89t-90.5 36q-58 0 -91 -33.5t-33 -85.5v-82q0 -60 32.5 -94t91.5 -34q57 0 90.5 36t33.5 90z" />
    <glyph glyph-name="zcaron" horiz-adv-x="498" 
 />
    <glyph glyph-name="Ydieresis" horiz-adv-x="641" 
d="M639 666l-259 -398v-268h-115v269l-263 397h132l193 -307l185 307h127zM460 736h-100v94h100v-94zM283 736h-99v94h99v-94z" />
    <glyph glyph-name="exclamdown" unicode="&#xa1;" horiz-adv-x="246" 
d="M175 353h-104v115h104v-115zM180 -198h-114v235l40 222h35l39 -222v-235z" />
    <glyph glyph-name="cent" unicode="&#xa2;" horiz-adv-x="527" 
d="M494 232q-28 -67 -67.5 -97.5t-98.5 -40.5v-101h-93v100q-86 16 -134.5 69t-48.5 125v76q0 82 51 138t132 71v102h93v-101q65 -11 106.5 -43.5t59.5 -99.5l-90 -23q-11 41 -42 64.5t-76 23.5q-58 0 -93.5 -33t-35.5 -95v-66q0 -62 36 -95.5t93 -33.5q44 0 76 25.5
t44 64.5z" />
    <glyph glyph-name="sterling" unicode="&#xa3;" horiz-adv-x="720" 
d="M696 85q-59 -106 -193 -106q-118 0 -220 66q-64 -66 -143 -66q-56 0 -91.5 29.5t-35.5 75.5q0 49 37 81.5t102 32.5q51 0 107 -35q22 24 22 56q0 40 -25 70h-184v89h127q-38 54 -38 106q0 82 70 142.5t187 60.5q78 0 140.5 -35.5t95.5 -87.5l-73 -63q-38 44 -80 67.5
t-102 23.5t-93.5 -29.5t-33.5 -82.5q0 -47 48 -102h233v-89h-184q15 -34 15 -68q0 -51 -43 -102q84 -46 152 -46q80 0 134 68zM219 93q-35 28 -72 28q-44 0 -44 -31q0 -13 11.5 -22t33.5 -9q47 0 71 34z" />
    <glyph glyph-name="currency" unicode="&#xa4;" horiz-adv-x="657" 
d="M165 380h376v-91h-376v-28q0 -87 50.5 -134.5t146.5 -47.5q124 0 179 124l93 -43q-33 -77 -104 -129t-174 -52q-144 0 -223 82t-79 208v124q0 127 81.5 210.5t224.5 83.5q102 0 173.5 -52t100.5 -127l-95 -43q-62 122 -181 122q-95 0 -144 -48t-49 -136v-23z" />
    <glyph glyph-name="yen" unicode="&#xa5;" horiz-adv-x="648" 
d="M379 275v-67h199v-87h-199v-121h-112v121h-201v87h201v67h-201v87h160l-210 304h128l183 -285l175 285h128l-208 -304h156v-87h-199z" />
    <glyph glyph-name="section" unicode="&#xa7;" horiz-adv-x="640" 
d="M578 576l-73 -71q-94 92 -195 92q-59 0 -92 -23t-33 -56q0 -32 41 -54.5t100 -38.5t117.5 -35t99.5 -56t41 -90q0 -42 -28 -76.5t-80 -53.5q102 -46 102 -128q0 -74 -65.5 -123.5t-180.5 -49.5q-158 0 -281 104l67 75q94 -90 214 -90q65 0 100 21.5t35 54.5
q0 28 -29.5 49t-74 33t-96.5 28.5t-96.5 34t-74 50.5t-29.5 77q0 41 30.5 76.5t79.5 54.5q-102 44 -102 127q0 73 69 126t175 53q150 0 259 -111zM480 228q0 40 -68 71q-34 15 -143 50q-43 -7 -69 -29.5t-26 -50.5q0 -31 36 -50.5t131 -52.5q31 -10 48 -16q41 7 66 29t25 49
z" />
    <glyph glyph-name="dieresis" unicode="&#xa8;" horiz-adv-x="353" 
d="M315 568h-100v94h100v-94zM138 568h-99v94h99v-94z" />
    <glyph glyph-name="copyright" unicode="&#xa9;" horiz-adv-x="798" 
d="M753 333q0 -148 -101.5 -251t-252.5 -103t-252.5 103t-101.5 251t101.5 251t252.5 103t252.5 -103t101.5 -251zM697 333q0 128 -84 216t-214 88t-214 -88t-84 -216t84 -216t214 -88t214 88t84 216zM531 260q-9 -43 -42 -70.5t-83 -27.5q-64 0 -102 35.5t-38 90.5v90
q0 54 38 89.5t102 35.5q51 0 83 -25.5t45 -66.5l-61 -22q-6 24 -22.5 40.5t-42.5 16.5q-71 0 -71 -71v-85q0 -70 72 -70q50 0 64 58z" />
    <glyph glyph-name="ordfeminine" unicode="&#xaa;" horiz-adv-x="437" 
d="M402 305h-30q-72 0 -72 63q-48 -63 -132 -63q-54 0 -87.5 27t-33.5 74v4q0 64 67.5 91t164.5 12v35q0 60 -71 60q-45 0 -78 -48l-60 33q46 82 143 82q78 0 114.5 -38.5t36.5 -105.5v-139q0 -15 7.5 -20t30.5 -5v-62zM279 435v31q-71 10 -108.5 -4.5t-37.5 -47.5v-3
q0 -19 15 -31t41 -12q34 0 62 19t28 48z" />
    <glyph glyph-name="guillemotleft" unicode="&#xab;" horiz-adv-x="551" 
d="M500 0h-57q-17 54 -63 104t-109 66v71q63 16 109 66t63 104h57q0 -61 -31 -117.5t-86 -88.5q55 -32 86 -88t31 -117zM270 0h-57q-17 54 -63 104t-109 66v71q63 16 109 66t63 104h57q0 -61 -31 -117.5t-86 -88.5q55 -32 86 -88t31 -117z" />
    <glyph glyph-name="logicalnot" unicode="&#xac;" horiz-adv-x="465" 
d="M407 225l-63 -63l-112 113l-111 -113l-62 62l112 111l-112 112l63 63l112 -113l111 113l62 -62l-113 -111z" />
    <glyph glyph-name="registered" unicode="&#xae;" horiz-adv-x="798" 
d="M753 333q0 -148 -101.5 -251t-252.5 -103t-252.5 103t-101.5 251t101.5 251t252.5 103t252.5 -103t101.5 -251zM697 333q0 128 -84 216t-214 88t-214 -88t-84 -216t84 -216t214 -88t214 88t84 216zM551 170h-38q-49 0 -49 53v39q0 42 -45 42h-68v-131h-69v322h139
q56 0 84.5 -23.5t28.5 -64.5v-7q0 -59 -62 -71q30 -4 46 -23t16 -45v-34q0 -21 17 -30v-27zM464 392v8q0 40 -45 40h-68v-91h65q48 0 48 43z" />
    <glyph glyph-name="macron" unicode="&#xaf;" horiz-adv-x="367" 
d="M338 582h-308v70h308v-70z" />
    <glyph glyph-name="degree" unicode="&#xb0;" horiz-adv-x="397" 
d="M353 533q0 -61 -43.5 -105t-110.5 -44t-110.5 44t-43.5 105t43.5 105.5t110.5 44.5t110.5 -44.5t43.5 -105.5zM274 533q0 36 -20 58.5t-55 22.5t-55 -22.5t-20 -58.5q0 -37 20 -59.5t55 -22.5t55 22.5t20 59.5z" />
    <glyph glyph-name="plusminus" unicode="&#xb1;" horiz-adv-x="523" 
d="M491 0h-459v480h459v-480zM440 49v382h-357v-382h357z" />
    <glyph glyph-name="acute" unicode="&#xb4;" horiz-adv-x="256" 
d="M226 698l-99 -149h-65l50 149h114z" />
    <glyph glyph-name="paragraph" unicode="&#xb6;" horiz-adv-x="766" 
d="M688 -171h-92v748h-86v-748h-92v325h-56q-145 0 -230.5 68.5t-85.5 180.5v11q0 113 86 182.5t230 69.5h326v-837zM418 250v327h-43q-142 0 -142 -128v-72q0 -127 142 -127h43z" />
    <glyph glyph-name="periodcentered" unicode="&#xb7;" horiz-adv-x="235" 
d="M170 275h-105v115h105v-115z" />
    <glyph glyph-name="cedilla" unicode="&#xb8;" horiz-adv-x="276" 
d="M254 -156q0 -43 -32 -70t-86 -27q-29 0 -60 12v35h44q62 0 62 41v17q0 18 -14 29t-39 11q-34 0 -64 -25l-35 29l107 129l33 -28l-65 -76q23 14 53 14q45 0 70.5 -26t25.5 -65z" />
    <glyph glyph-name="ordmasculine" unicode="&#xba;" horiz-adv-x="433" 
d="M386 460q0 -71 -48.5 -113t-121.5 -42t-121 41.5t-48 113.5v60q0 71 48 113t121 42t121.5 -42t48.5 -113v-60zM297 451v79q0 36 -21.5 57.5t-59.5 21.5t-59.5 -21.5t-21.5 -57.5v-79q0 -36 21.5 -57.5t59.5 -21.5t59.5 21.5t21.5 57.5z" />
    <glyph glyph-name="guillemotright" unicode="&#xbb;" horiz-adv-x="551" 
d="M512 170q-63 -16 -109.5 -66t-63.5 -104h-57q0 61 31.5 116.5t85.5 88.5q-54 33 -85.5 89t-31.5 117h57q17 -55 63 -104.5t110 -65.5v-71zM282 170q-63 -16 -109.5 -66t-63.5 -104h-57q0 61 31.5 116.5t85.5 88.5q-54 33 -85.5 89t-31.5 117h57q17 -55 63 -104.5
t110 -65.5v-71z" />
    <glyph glyph-name="questiondown" unicode="&#xbf;" horiz-adv-x="439" 
d="M302 353h-105v115h105v-115zM461 -88q-101 -131 -243 -131q-112 0 -175 53t-63 130q0 45 23 80t55.5 57t64.5 42.5t55 47.5t23 60h93q0 -45 -21 -80t-50.5 -58t-59 -43t-50.5 -45.5t-21 -55.5q0 -43 32.5 -68t91.5 -25q52 0 92.5 23.5t80.5 68.5z" />
    <glyph glyph-name="Agrave" unicode="&#xc0;" 
d="M659 0h-121l-65 168h-281l-63 -168h-118l268 666h108zM437 258l-107 271l-104 -271h211zM360 722h-64l-100 149h114z" />
    <glyph glyph-name="Aacute" unicode="&#xc1;" 
d="M659 0h-121l-65 168h-281l-63 -168h-118l268 666h108zM437 258l-107 271l-104 -271h211zM464 871l-99 -149h-65l50 149h114z" />
    <glyph glyph-name="Acircumflex" unicode="&#xc2;" 
d="M659 0h-121l-65 168h-281l-63 -168h-118l268 666h108zM437 258l-107 271l-104 -271h211zM501 728q-27 -8 -55 -8q-41 0 -73.5 26.5t-43.5 67.5q-11 -41 -43 -67.5t-74 -26.5q-21 0 -48 8v30q37 0 68.5 27.5t46.5 77.5h106q15 -50 47 -77.5t69 -27.5v-30z" />
    <glyph glyph-name="Atilde" unicode="&#xc3;" 
d="M659 0h-121l-65 168h-281l-63 -168h-118l268 666h108zM437 258l-107 271l-104 -271h211zM504 814q0 -39 -24 -63.5t-68 -24.5q-33 0 -91 31.5t-72 31.5q-25 0 -25 -32v-31h-55q-13 21 -13 45q0 40 23.5 64.5t67.5 24.5q33 0 91 -31.5t72 -31.5q25 0 25 33v31h55
q14 -25 14 -47z" />
    <glyph glyph-name="Adieresis" unicode="&#xc4;" 
d="M659 0h-121l-65 168h-281l-63 -168h-118l268 666h108zM437 258l-107 271l-104 -271h211zM465 741h-100v94h100v-94zM288 741h-99v94h99v-94z" />
    <glyph glyph-name="Aring" unicode="&#xc5;" 
d="M437 258l-107 271l-104 -271h211zM383 762q0 23 -13 37t-37 14q-23 0 -36 -14t-13 -37t13 -37.5t36 -14.5t36.5 14.5t13.5 37.5zM301 666q-34 9 -54 36t-20 60q0 40 29.5 69.5t76.5 29.5t77 -29.5t30 -69.5q0 -33 -20.5 -60t-54.5 -36h22l272 -666h-121l-65 168h-281
l-63 -168h-118l268 666h22z" />
    <glyph glyph-name="AE" unicode="&#xc6;" horiz-adv-x="970" 
d="M923 0h-483v168h-219l-104 -168h-124l428 666h502v-100h-368v-173h276v-95h-276v-198h368v-100zM440 259v266l-162 -266h162z" />
    <glyph glyph-name="Ccedilla" unicode="&#xc7;" horiz-adv-x="682" 
d="M652 508l-97 -43q-27 53 -74.5 87.5t-114.5 34.5q-93 0 -144.5 -53t-51.5 -139v-128q0 -84 52.5 -136t147.5 -52q66 0 114 33.5t73 90.5l95 -43q-31 -74 -103.5 -126t-174.5 -55l-50 -58q23 14 53 14q45 0 70.5 -26t25.5 -65q0 -43 -32 -70t-86 -27q-29 0 -60 12v35h44
q62 0 62 41v17q0 18 -14 29t-39 11q-34 0 -64 -25l-35 29l71 85q-125 13 -195.5 94t-70.5 196v120q0 126 85 211t229 85q102 0 179 -53t105 -126z" />
    <glyph glyph-name="Egrave" unicode="&#xc8;" horiz-adv-x="608" 
d="M561 0h-482v666h482v-100h-367v-173h276v-95h-276v-198h367v-100zM373 722h-64l-100 149h114z" />
    <glyph glyph-name="Eacute" unicode="&#xc9;" horiz-adv-x="608" 
d="M561 0h-482v666h482v-100h-367v-173h276v-95h-276v-198h367v-100zM440 871l-99 -149h-65l50 149h114z" />
    <glyph glyph-name="Ecircumflex" unicode="&#xca;" horiz-adv-x="608" 
d="M561 0h-482v666h482v-100h-367v-173h276v-95h-276v-198h367v-100zM490 730q-27 -8 -55 -8q-41 0 -73.5 26.5t-43.5 67.5q-11 -41 -43 -67.5t-74 -26.5q-21 0 -48 8v30q37 0 68.5 27.5t46.5 77.5h106q15 -50 47 -77.5t69 -27.5v-30z" />
    <glyph glyph-name="Edieresis" unicode="&#xcb;" horiz-adv-x="608" 
d="M561 0h-482v666h482v-100h-367v-173h276v-95h-276v-198h367v-100zM459 741h-100v94h100v-94zM282 741h-99v94h99v-94z" />
    <glyph glyph-name="Igrave" unicode="&#xcc;" horiz-adv-x="273" 
d="M194 0h-115v666h115v-666zM169 722h-64l-100 149h114z" />
    <glyph glyph-name="Iacute" unicode="&#xcd;" horiz-adv-x="273" 
d="M194 0h-115v666h115v-666zM262 871l-99 -149h-65l50 149h114z" />
    <glyph glyph-name="Icircumflex" unicode="&#xce;" horiz-adv-x="273" 
d="M194 0h-115v666h115v-666zM305 728q-27 -8 -55 -8q-41 0 -73.5 26.5t-43.5 67.5q-11 -41 -43 -67.5t-74 -26.5q-21 0 -48 8v30q37 0 68.5 27.5t46.5 77.5h106q15 -50 47 -77.5t69 -27.5v-30z" />
    <glyph glyph-name="Idieresis" unicode="&#xcf;" horiz-adv-x="273" 
d="M194 0h-115v666h115v-666zM273 741h-100v94h100v-94zM96 741h-99v94h99v-94z" />
    <glyph glyph-name="Eth" unicode="&#xd0;" horiz-adv-x="760" 
d="M131 290h-104v90h104v286h279q137 0 216.5 -74t79.5 -186v-147q0 -111 -79.5 -185t-216.5 -74h-279v290zM246 380h142v-90h-142v-190h158q88 0 137.5 45.5t49.5 120.5v134q0 75 -49.5 120.5t-137.5 45.5h-158v-186z" />
    <glyph glyph-name="Ntilde" unicode="&#xd1;" horiz-adv-x="728" 
d="M649 0h-91l-312 396l-55 76v-472h-112v666h101l303 -399l54 -75v474h112v-666zM540 814q0 -39 -24 -63.5t-68 -24.5q-33 0 -91 31.5t-72 31.5q-25 0 -25 -32v-31h-55q-13 21 -13 45q0 40 23.5 64.5t67.5 24.5q33 0 91 -31.5t72 -31.5q25 0 25 33v31h55q14 -25 14 -47z
" />
    <glyph glyph-name="Ograve" unicode="&#xd2;" horiz-adv-x="712" 
d="M658 261q0 -118 -81.5 -200t-220.5 -82t-220.5 82t-81.5 200v145q0 118 81 199.5t221 81.5t221 -81.5t81 -199.5v-145zM542 260v147q0 78 -49 129t-137 51t-137 -51t-49 -129v-147q0 -78 49 -129.5t137 -51.5t137 51.5t49 129.5zM390 729h-64l-100 149h114z" />
    <glyph glyph-name="Oacute" unicode="&#xd3;" horiz-adv-x="712" 
d="M658 261q0 -118 -81.5 -200t-220.5 -82t-220.5 82t-81.5 200v145q0 118 81 199.5t221 81.5t221 -81.5t81 -199.5v-145zM542 260v147q0 78 -49 129t-137 51t-137 -51t-49 -129v-147q0 -78 49 -129.5t137 -51.5t137 51.5t49 129.5zM483 878l-99 -149h-65l50 149h114z" />
    <glyph glyph-name="Ocircumflex" unicode="&#xd4;" horiz-adv-x="712" 
d="M658 261q0 -118 -81.5 -200t-220.5 -82t-220.5 82t-81.5 200v145q0 118 81 199.5t221 81.5t221 -81.5t81 -199.5v-145zM542 260v147q0 78 -49 129t-137 51t-137 -51t-49 -129v-147q0 -78 49 -129.5t137 -51.5t137 51.5t49 129.5zM525 733q-27 -8 -55 -8q-41 0 -73.5 26.5
t-43.5 67.5q-11 -41 -43 -67.5t-74 -26.5q-21 0 -48 8v30q37 0 68.5 27.5t46.5 77.5h106q15 -50 47 -77.5t69 -27.5v-30z" />
    <glyph glyph-name="Otilde" unicode="&#xd5;" horiz-adv-x="712" 
d="M658 261q0 -118 -81.5 -200t-220.5 -82t-220.5 82t-81.5 200v145q0 118 81 199.5t221 81.5t221 -81.5t81 -199.5v-145zM542 260v147q0 78 -49 129t-137 51t-137 -51t-49 -129v-147q0 -78 49 -129.5t137 -51.5t137 51.5t49 129.5zM526 819q0 -39 -24 -63.5t-68 -24.5
q-33 0 -91 31.5t-72 31.5q-25 0 -25 -32v-31h-55q-13 21 -13 45q0 40 23.5 64.5t67.5 24.5q33 0 91 -31.5t72 -31.5q25 0 25 33v31h55q14 -24 14 -47z" />
    <glyph glyph-name="Odieresis" unicode="&#xd6;" horiz-adv-x="712" 
d="M658 261q0 -118 -81.5 -200t-220.5 -82t-220.5 82t-81.5 200v145q0 118 81 199.5t221 81.5t221 -81.5t81 -199.5v-145zM542 260v147q0 78 -49 129t-137 51t-137 -51t-49 -129v-147q0 -78 49 -129.5t137 -51.5t137 51.5t49 129.5zM495 746h-100v94h100v-94zM318 746h-99
v94h99v-94z" />
    <glyph glyph-name="multiply" unicode="&#xd7;" horiz-adv-x="465" 
d="M407 225l-63 -63l-112 113l-111 -113l-62 62l112 111l-112 112l63 63l112 -113l111 113l62 -62l-113 -111z" />
    <glyph glyph-name="Oslash" unicode="&#xd8;" horiz-adv-x="712" 
d="M529 480l-305 -355q51 -46 132 -46q88 0 137 51.5t49 129.5v147q0 41 -13 73zM184 186q19 22 50.5 59t98 114.5t111.5 128.5l44 52q-50 47 -132 47q-88 0 -137 -51t-49 -129v-147q0 -40 14 -74zM106 95q-52 72 -52 166v145q0 118 81 199.5t221 81.5q121 0 202 -65l68 79
l52 -47l-71 -83q51 -73 51 -165v-145q0 -118 -81.5 -200t-220.5 -82q-121 0 -202 65l-69 -80l-52 46z" />
    <glyph glyph-name="Ugrave" unicode="&#xd9;" horiz-adv-x="715" 
d="M642 228q0 -112 -74 -180.5t-212 -68.5q-136 0 -209.5 67.5t-73.5 181.5v438h116v-438q0 -149 171 -149q166 0 166 149v438h116v-438zM400 717h-64l-100 149h114z" />
    <glyph glyph-name="Uacute" unicode="&#xda;" horiz-adv-x="715" 
d="M642 228q0 -112 -74 -180.5t-212 -68.5q-136 0 -209.5 67.5t-73.5 181.5v438h116v-438q0 -149 171 -149q166 0 166 149v438h116v-438zM483 866l-99 -149h-65l50 149h114z" />
    <glyph glyph-name="Ucircumflex" unicode="&#xdb;" horiz-adv-x="715" 
d="M642 228q0 -112 -74 -180.5t-212 -68.5q-136 0 -209.5 67.5t-73.5 181.5v438h116v-438q0 -149 171 -149q166 0 166 149v438h116v-438zM530 728q-27 -8 -55 -8q-41 0 -73.5 26.5t-43.5 67.5q-11 -41 -43 -67.5t-74 -26.5q-21 0 -48 8v30q37 0 68.5 27.5t46.5 77.5h106
q15 -50 47 -77.5t69 -27.5v-30z" />
    <glyph glyph-name="Udieresis" unicode="&#xdc;" horiz-adv-x="715" 
d="M642 228q0 -112 -74 -180.5t-212 -68.5q-136 0 -209.5 67.5t-73.5 181.5v438h116v-438q0 -149 171 -149q166 0 166 149v438h116v-438zM498 736h-100v94h100v-94zM321 736h-99v94h99v-94z" />
    <glyph glyph-name="Yacute" unicode="&#xdd;" horiz-adv-x="641" 
d="M639 666l-259 -398v-268h-115v269l-263 397h132l193 -307l185 307h127zM452 866l-99 -149h-65l50 149h114z" />
    <glyph glyph-name="Thorn" unicode="&#xde;" horiz-adv-x="647" 
d="M606 326q0 -88 -57.5 -138.5t-176.5 -50.5h-178v-137h-115v666h115v-118h178q119 0 176.5 -50t57.5 -137v-35zM490 323v39q0 90 -109 90h-187v-221h190q106 0 106 92z" />
    <glyph glyph-name="germandbls" unicode="&#xdf;" horiz-adv-x="569" 
d="M520 159q0 -74 -51 -120.5t-137 -46.5q-50 0 -71 13v49q83 0 117.5 25t34.5 73v70q0 90 -148 94v57q123 8 123 93v32q0 42 -26 68.5t-74 26.5q-52 0 -79.5 -34.5t-27.5 -92.5v-466h-108v450q0 102 55 162t161 60q102 0 154 -49.5t52 -116.5v-17q0 -47 -24.5 -83
t-74.5 -51q124 -29 124 -141v-55z" />
    <glyph glyph-name="agrave" unicode="&#xe0;" horiz-adv-x="544" 
d="M520 -8h-38q-40 0 -65 19t-24 62q-67 -81 -181 -81q-76 0 -122 36.5t-46 98.5v4q0 86 93.5 121t230.5 15v36q0 45 -24.5 70t-70.5 25q-79 0 -126 -79l-77 40q66 120 198 120q101 0 151.5 -50.5t50.5 -139.5v-186q0 -20 10.5 -28t39.5 -8v-75zM368 162v42q-106 16 -163 -3
t-57 -67v-2q0 -26 23 -43.5t60 -17.5q50 0 93.5 26.5t43.5 64.5zM306 549h-64l-100 149h114z" />
    <glyph glyph-name="aacute" unicode="&#xe1;" horiz-adv-x="544" 
d="M520 -8h-38q-40 0 -65 19t-24 62q-67 -81 -181 -81q-76 0 -122 36.5t-46 98.5v4q0 86 93.5 121t230.5 15v36q0 45 -24.5 70t-70.5 25q-79 0 -126 -79l-77 40q66 120 198 120q101 0 151.5 -50.5t50.5 -139.5v-186q0 -20 10.5 -28t39.5 -8v-75zM368 162v42q-106 16 -163 -3
t-57 -67v-2q0 -26 23 -43.5t60 -17.5q50 0 93.5 26.5t43.5 64.5zM391 698l-99 -149h-65l50 149h114z" />
    <glyph glyph-name="acircumflex" unicode="&#xe2;" horiz-adv-x="544" 
d="M520 -8h-38q-40 0 -65 19t-24 62q-67 -81 -181 -81q-76 0 -122 36.5t-46 98.5v4q0 86 93.5 121t230.5 15v36q0 45 -24.5 70t-70.5 25q-79 0 -126 -79l-77 40q66 120 198 120q101 0 151.5 -50.5t50.5 -139.5v-186q0 -20 10.5 -28t39.5 -8v-75zM368 162v42q-106 16 -163 -3
t-57 -67v-2q0 -26 23 -43.5t60 -17.5q50 0 93.5 26.5t43.5 64.5zM441 560q-27 -8 -55 -8q-41 0 -73.5 26.5t-43.5 67.5q-11 -41 -43 -67.5t-74 -26.5q-21 0 -48 8v30q37 0 68.5 27.5t46.5 77.5h106q15 -50 47 -77.5t69 -27.5v-30z" />
    <glyph glyph-name="atilde" unicode="&#xe3;" horiz-adv-x="544" 
d="M520 -8h-38q-40 0 -65 19t-24 62q-67 -81 -181 -81q-76 0 -122 36.5t-46 98.5v4q0 86 93.5 121t230.5 15v36q0 45 -24.5 70t-70.5 25q-79 0 -126 -79l-77 40q66 120 198 120q101 0 151.5 -50.5t50.5 -139.5v-186q0 -20 10.5 -28t39.5 -8v-75zM368 162v42q-106 16 -163 -3
t-57 -67v-2q0 -26 23 -43.5t60 -17.5q50 0 93.5 26.5t43.5 64.5zM438 646q0 -39 -24 -63.5t-68 -24.5q-33 0 -91 31.5t-72 31.5q-25 0 -25 -32v-31h-55q-13 21 -13 45q0 40 23.5 64.5t67.5 24.5q33 0 91 -31.5t72 -31.5q25 0 25 33v31h55q14 -25 14 -47z" />
    <glyph glyph-name="adieresis" unicode="&#xe4;" horiz-adv-x="544" 
d="M520 -8h-38q-40 0 -65 19t-24 62q-67 -81 -181 -81q-76 0 -122 36.5t-46 98.5v4q0 86 93.5 121t230.5 15v36q0 45 -24.5 70t-70.5 25q-79 0 -126 -79l-77 40q66 120 198 120q101 0 151.5 -50.5t50.5 -139.5v-186q0 -20 10.5 -28t39.5 -8v-75zM368 162v42q-106 16 -163 -3
t-57 -67v-2q0 -26 23 -43.5t60 -17.5q50 0 93.5 26.5t43.5 64.5zM404 568h-100v94h100v-94zM227 568h-99v94h99v-94z" />
    <glyph glyph-name="aring" unicode="&#xe5;" horiz-adv-x="544" 
 />
    <glyph glyph-name="ae" unicode="&#xe6;" horiz-adv-x="855" 
d="M808 131q-58 -139 -208 -139q-135 0 -193 89q-35 -41 -88 -65t-107 -24q-76 0 -122 36.5t-46 98.5v4q0 86 93.5 121t230.5 15v36q0 45 -24.5 70t-70.5 25q-79 0 -126 -79l-77 39q64 121 191 121q120 0 167 -72q59 72 168 72q98 0 157 -58.5t59 -151.5v-44h-340v-45
q0 -47 35.5 -78t93.5 -31q44 0 75.5 25t45.5 65zM711 280v20q0 40 -33 70t-85 30q-54 0 -87.5 -28.5t-33.5 -71.5v-20h239zM368 162v42q-106 16 -163 -3t-57 -67v-2q0 -26 23 -43.5t60 -17.5q50 0 93.5 26.5t43.5 64.5z" />
    <glyph glyph-name="ccedilla" unicode="&#xe7;" horiz-adv-x="523" 
d="M491 134q-56 -135 -197 -142l-61 -71q23 14 53 14q45 0 70.5 -26t25.5 -65q0 -43 -32 -70t-86 -27q-29 0 -60 12v35h44q62 0 62 41v17q0 18 -14 29t-39 11q-34 0 -64 -25l-35 29l82 99q-85 11 -138 67.5t-53 139.5v63q0 93 66.5 153.5t165.5 60.5q82 0 136.5 -38
t73.5 -109l-90 -23q-11 41 -42 64.5t-76 23.5q-57 0 -93 -34.5t-36 -93.5v-66q0 -62 36 -95.5t93 -33.5q44 0 76 25.5t44 64.5z" />
    <glyph glyph-name="egrave" unicode="&#xe8;" horiz-adv-x="537" 
d="M494 225h-340v-45q0 -47 35.5 -78t93.5 -31q44 0 75.5 25t45.5 65l86 -30q-58 -139 -213 -139q-101 0 -164.5 56t-63.5 148v75q0 91 60.5 149.5t163.5 58.5t162 -58t59 -152v-44zM393 280v20q0 40 -33 70t-85 30q-54 0 -87.5 -28.5t-33.5 -71.5v-20h239zM308 549h-64
l-100 149h114z" />
    <glyph glyph-name="eacute" unicode="&#xe9;" horiz-adv-x="537" 
d="M494 225h-340v-45q0 -47 35.5 -78t93.5 -31q44 0 75.5 25t45.5 65l86 -30q-58 -139 -213 -139q-101 0 -164.5 56t-63.5 148v75q0 91 60.5 149.5t163.5 58.5t162 -58t59 -152v-44zM393 280v20q0 40 -33 70t-85 30q-54 0 -87.5 -28.5t-33.5 -71.5v-20h239zM402 698
l-99 -149h-65l50 149h114z" />
    <glyph glyph-name="ecircumflex" unicode="&#xea;" horiz-adv-x="537" 
d="M494 225h-340v-45q0 -47 35.5 -78t93.5 -31q44 0 75.5 25t45.5 65l86 -30q-58 -139 -213 -139q-101 0 -164.5 56t-63.5 148v75q0 91 60.5 149.5t163.5 58.5t162 -58t59 -152v-44zM393 280v20q0 40 -33 70t-85 30q-54 0 -87.5 -28.5t-33.5 -71.5v-20h239zM441 560
q-27 -8 -55 -8q-41 0 -73.5 26.5t-43.5 67.5q-11 -41 -43 -67.5t-74 -26.5q-21 0 -48 8v30q37 0 68.5 27.5t46.5 77.5h106q15 -50 47 -77.5t69 -27.5v-30z" />
    <glyph glyph-name="edieresis" unicode="&#xeb;" horiz-adv-x="537" 
d="M494 225h-340v-45q0 -47 35.5 -78t93.5 -31q44 0 75.5 25t45.5 65l86 -30q-58 -139 -213 -139q-101 0 -164.5 56t-63.5 148v75q0 91 60.5 149.5t163.5 58.5t162 -58t59 -152v-44zM393 280v20q0 40 -33 70t-85 30q-54 0 -87.5 -28.5t-33.5 -71.5v-20h239zM410 568h-100v94
h100v-94zM233 568h-99v94h99v-94z" />
    <glyph glyph-name="igrave" unicode="&#xec;" horiz-adv-x="253" 
 />
    <glyph glyph-name="iacute" unicode="&#xed;" horiz-adv-x="253" 
 />
    <glyph glyph-name="icircumflex" unicode="&#xee;" horiz-adv-x="253" 
 />
    <glyph glyph-name="idieresis" unicode="&#xef;" horiz-adv-x="253" 
 />
    <glyph glyph-name="eth" unicode="&#xf0;" horiz-adv-x="556" 
d="M375 618l76 27l18 -47l-53 -18q94 -101 94 -240v-116q0 -110 -62.5 -171.5t-168.5 -61.5q-97 0 -163.5 56t-66.5 147v88q0 84 61.5 138t147.5 54q84 0 141 -59q-11 67 -73 132l-87 -31l-18 47l63 22q-53 44 -120 77v3h142q37 -20 69 -47zM154 187q0 -50 34 -83t91 -33
t91 33t34 83v84q0 56 -33.5 89.5t-91.5 33.5q-59 0 -92 -32.5t-33 -91.5v-83z" />
    <glyph glyph-name="ntilde" unicode="&#xf1;" horiz-adv-x="588" 
d="M520 0h-108v303q0 97 -89 97q-54 0 -98 -54.5t-44 -112.5v-233h-108v468h94l3 -134q65 145 193 145q74 0 115.5 -46t41.5 -121v-312zM463 646q0 -39 -24 -63.5t-68 -24.5q-33 0 -91 31.5t-72 31.5q-25 0 -25 -32v-31h-55q-13 21 -13 45q0 40 23.5 64.5t67.5 24.5
q33 0 91 -31.5t72 -31.5q25 0 25 33v31h55q14 -25 14 -47z" />
    <glyph glyph-name="ograve" unicode="&#xf2;" horiz-adv-x="558" 
d="M509 202q0 -98 -65 -154t-165 -56t-165 56t-65 154v65q0 98 65 155t165 57t165 -57t65 -155v-65zM403 199v72q0 60 -32.5 94.5t-91.5 34.5t-91.5 -34.5t-32.5 -94.5v-72q0 -60 32.5 -94t91.5 -34t91.5 34t32.5 94zM308 549h-64l-100 149h114z" />
    <glyph glyph-name="oacute" unicode="&#xf3;" horiz-adv-x="558" 
d="M509 202q0 -98 -65 -154t-165 -56t-165 56t-65 154v65q0 98 65 155t165 57t165 -57t65 -155v-65zM403 199v72q0 60 -32.5 94.5t-91.5 34.5t-91.5 -34.5t-32.5 -94.5v-72q0 -60 32.5 -94t91.5 -34t91.5 34t32.5 94zM407 698l-99 -149h-65l50 149h114z" />
    <glyph glyph-name="ocircumflex" unicode="&#xf4;" horiz-adv-x="558" 
d="M509 202q0 -98 -65 -154t-165 -56t-165 56t-65 154v65q0 98 65 155t165 57t165 -57t65 -155v-65zM403 199v72q0 60 -32.5 94.5t-91.5 34.5t-91.5 -34.5t-32.5 -94.5v-72q0 -60 32.5 -94t91.5 -34t91.5 34t32.5 94zM450 560q-27 -8 -55 -8q-41 0 -73.5 26.5t-43.5 67.5
q-11 -41 -43 -67.5t-74 -26.5q-21 0 -48 8v30q37 0 68.5 27.5t46.5 77.5h106q15 -50 47 -77.5t69 -27.5v-30z" />
    <glyph glyph-name="otilde" unicode="&#xf5;" horiz-adv-x="558" 
d="M509 202q0 -98 -65 -154t-165 -56t-165 56t-65 154v65q0 98 65 155t165 57t165 -57t65 -155v-65zM403 199v72q0 60 -32.5 94.5t-91.5 34.5t-91.5 -34.5t-32.5 -94.5v-72q0 -60 32.5 -94t91.5 -34t91.5 34t32.5 94zM449 646q0 -39 -24 -63.5t-68 -24.5q-33 0 -91 31.5
t-72 31.5q-25 0 -25 -32v-31h-55q-13 21 -13 45q0 40 23.5 64.5t67.5 24.5q33 0 91 -31.5t72 -31.5q25 0 25 33v31h55q14 -25 14 -47z" />
    <glyph glyph-name="odieresis" unicode="&#xf6;" horiz-adv-x="558" 
d="M509 202q0 -98 -65 -154t-165 -56t-165 56t-65 154v65q0 98 65 155t165 57t165 -57t65 -155v-65zM403 199v72q0 60 -32.5 94.5t-91.5 34.5t-91.5 -34.5t-32.5 -94.5v-72q0 -60 32.5 -94t91.5 -34t91.5 34t32.5 94zM418 568h-100v94h100v-94zM241 568h-99v94h99v-94z" />
    <glyph glyph-name="oslash" unicode="&#xf8;" horiz-adv-x="558" 
d="M96 66q-47 55 -47 136v65q0 98 65 155t165 57q83 0 141 -39l56 65l41 -35q-56 -65 -57 -65q49 -55 49 -138v-65q0 -98 -65 -154t-165 -56q-84 0 -142 39l-55 -64l-41 35zM164 144q6 7 15.5 18t35.5 41t49 56.5t46.5 54t37.5 43.5l14 16q-32 27 -83 27q-59 0 -91.5 -34.5
t-32.5 -94.5v-72q0 -31 9 -55zM394 328l-199 -230q30 -27 84 -27q59 0 91.5 34t32.5 94v72q0 31 -9 57z" />
    <glyph glyph-name="ugrave" unicode="&#xf9;" horiz-adv-x="583" 
d="M518 0h-93l-4 120q-61 -128 -186 -128q-79 0 -121.5 44.5t-42.5 120.5v311h108v-300q0 -47 24.5 -72t70.5 -25q54 0 95.5 50t41.5 108v239h107v-468zM334 549h-64l-100 149h114z" />
    <glyph glyph-name="uacute" unicode="&#xfa;" horiz-adv-x="583" 
d="M518 0h-93l-4 120q-61 -128 -186 -128q-79 0 -121.5 44.5t-42.5 120.5v311h108v-300q0 -47 24.5 -72t70.5 -25q54 0 95.5 50t41.5 108v239h107v-468zM421 698l-99 -149h-65l50 149h114z" />
    <glyph glyph-name="ucircumflex" unicode="&#xfb;" horiz-adv-x="583" 
d="M518 0h-93l-4 120q-61 -128 -186 -128q-79 0 -121.5 44.5t-42.5 120.5v311h108v-300q0 -47 24.5 -72t70.5 -25q54 0 95.5 50t41.5 108v239h107v-468zM461 560q-27 -8 -55 -8q-41 0 -73.5 26.5t-43.5 67.5q-11 -41 -43 -67.5t-74 -26.5q-21 0 -48 8v30q37 0 68.5 27.5
t46.5 77.5h106q15 -50 47 -77.5t69 -27.5v-30z" />
    <glyph glyph-name="udieresis" unicode="&#xfc;" horiz-adv-x="583" 
d="M518 0h-93l-4 120q-61 -128 -186 -128q-79 0 -121.5 44.5t-42.5 120.5v311h108v-300q0 -47 24.5 -72t70.5 -25q54 0 95.5 50t41.5 108v239h107v-468zM434 568h-100v94h100v-94zM257 568h-99v94h99v-94z" />
    <glyph glyph-name="yacute" unicode="&#xfd;" horiz-adv-x="514" 
d="M500 468l-174 -431q-28 -59 -45 -88.5t-42.5 -56.5t-57.5 -36.5t-79 -9.5h-42v76h39q41 0 61 14t34 45l9 23l-192 464h111l93 -247l42 -113l42 113l90 247h111zM381 698l-99 -149h-65l50 149h114z" />
    <glyph glyph-name="thorn" unicode="&#xfe;" horiz-adv-x="577" 
d="M528 185q0 -79 -56 -136t-132 -57q-104 0 -163 69v-212h-104v817h104v-267q60 81 169 81q77 0 129.5 -56.5t52.5 -136.5v-102zM422 198v75q0 62 -31.5 94.5t-87.5 32.5q-55 0 -89 -35t-34 -94v-78q0 -56 36 -89t87 -33q55 0 87 33t32 94z" />
    <glyph glyph-name="ydieresis" unicode="&#xff;" horiz-adv-x="514" 
d="M500 468l-174 -431q-28 -59 -45 -88.5t-42.5 -56.5t-57.5 -36.5t-79 -9.5h-42v76h39q41 0 61 14t34 45l9 23l-192 464h111l93 -247l42 -113l42 113l90 247h111zM396 568h-100v94h100v-94zM219 568h-99v94h99v-94z" />
    <glyph glyph-name="NUL" horiz-adv-x="1000" 
 />
    <glyph glyph-name="Lslash" horiz-adv-x="639" 
d="M229 308v-208h385v-100h-500v258l-76 -33l-26 65l102 44v332h115v-281l141 62l26 -66z" />
    <glyph glyph-name="lslash" horiz-adv-x="305" 
d="M317 405l-112 -82v-323h-105v246l-63 -47l-39 54l102 75v338h105v-261l73 54z" />
    <glyph glyph-name="notequal" horiz-adv-x="510" 
d="M478 0h-446v468h446v-468z" />
    <glyph glyph-name="lessequal" horiz-adv-x="515" 
d="M417 84l-361 155v13l361 155v-323z" />
    <glyph glyph-name="greaterequal" horiz-adv-x="515" 
d="M459 239l-361 -155v323l361 -155v-13z" />
    <glyph glyph-name="product" horiz-adv-x="659" 
d="M497 0l-184 271h-119v-271h-115v666h300q116 0 173 -49.5t57 -135.5v-29q0 -144 -176 -174l199 -278h-135zM194 361h182q117 0 117 91v33q0 84 -109 84h-190v-208z" />
    <glyph glyph-name="pi" horiz-adv-x="798" 
d="M753 333q0 -148 -101.5 -251t-252.5 -103t-252.5 103t-101.5 251t101.5 251t252.5 103t252.5 -103t101.5 -251zM697 333q0 128 -84 216t-214 88t-214 -88t-84 -216t84 -216t214 -88t214 88t84 216zM547 383q0 -42 -29 -67t-85 -25h-69v-118h-69v322h138q56 0 85 -24
t29 -66v-22zM477 381v21q0 38 -49 38h-64v-99h64q49 0 49 40z" />
    <glyph glyph-name="Omega" horiz-adv-x="690" 
d="M672 388h-106v-388h-108v388h-82v77h82v25q0 85 45 133.5t137 48.5h37v-81h-31q-83 0 -83 -91v-35h109v-77zM327 388h-106v-388h-108v388h-82v77h82v25q0 85 45 133.5t137 48.5h37v-81h-31q-83 0 -83 -91v-35h109v-77z" />
    <glyph glyph-name="radical" horiz-adv-x="940" 
d="M672 388h-106v-388h-108v388h-82v77h82v25q0 85 45 133.5t137 48.5h37v-81h-31q-83 0 -83 -91v-35h109v-77zM327 388h-106v-388h-108v388h-82v77h82v25q0 85 45 133.5t137 48.5h37v-81h-31q-83 0 -83 -91v-35h109v-77zM868 0h-105v666h105v-666z" />
    <glyph glyph-name="approxequal" horiz-adv-x="943" 
d="M672 388h-106v-388h-108v388h-82v77h82v25q0 85 45 133.5t137 48.5h37v-81h-31q-83 0 -83 -91v-35h109v-77zM327 388h-106v-388h-108v388h-82v77h82v25q0 85 45 133.5t137 48.5h37v-81h-31q-83 0 -83 -91v-35h109v-77zM868 549h-102v95h102v-95zM871 0h-108v468h108v-468
z" />
    <glyph glyph-name="fraction" horiz-adv-x="177" 
d="M375 702l-516 -814l-56 41l515 813z" />
    <glyph glyph-name="fi" horiz-adv-x="598" 
d="M327 388h-106v-388h-108v388h-82v77h82v25q0 85 45 133.5t137 48.5h37v-81h-31q-83 0 -83 -91v-35h109v-77zM523 549h-102v95h102v-95zM526 0h-108v468h108v-468z" />
    <glyph glyph-name="fl" horiz-adv-x="595" 
d="M327 388h-106v-388h-108v388h-82v77h82v25q0 85 45 133.5t137 48.5h37v-81h-31q-83 0 -83 -91v-35h109v-77zM523 0h-105v666h105v-666z" />
    <glyph glyph-name="apple" horiz-adv-x="967" 
d="M868 0h-767v750h767v-750zM859 -104h-6l-3 20l-10 -21h-2l-10 21l-3 -20h-6l6 34h1l13 -26l13 26h1zM806 -87q0 -18 -17 -18q-7 0 -12 5t-5 12q0 18 18 18q7 0 11.5 -5t4.5 -12zM758 -96l-1 -6q-3 -3 -10 -3q-18 0 -18 17q0 8 5.5 13t12.5 5t11 -3l-2 -5q-3 3 -9 3
q-12 0 -12 -12q0 -13 13 -13q4 0 10 4zM702 -71l-13 -19v-14h-6v14l-14 19l6 1l11 -15l9 14h7zM656 -104h-6v15h-16v-15h-6v33h6v-13h16v13h6v-33zM612 -82q0 -12 -17 -12v-10h-6v33q23 3 23 -11zM576 -104h-6l-4 8h-14l-3 -8h-6l15 34h2zM534 -104h-7l-8 11h-5v-11h-6v33
q23 3 23 -10q0 -7 -7 -10zM491 -101q-6 -4 -13 -4q-18 0 -18 17q0 8 5.5 13t13.5 5q6 0 12 -4l-2 -5q-4 4 -11 4q-12 0 -12 -13q0 -12 13 -12q2 0 6 2v7h-9v5h15v-15zM447 -87q0 -18 -17 -18q-7 0 -12 5t-5 12q0 18 18 18q7 0 11.5 -5t4.5 -12zM400 -82q0 -12 -17 -12v-10
h-6v33q23 3 23 -11zM364 -71l-13 -19v-14h-6v14l-14 19l6 1l11 -15l9 14h7zM323 -71v-5h-12v-28h-6v28h-12v5h30zM267 -71l-12 -34h-1l-11 23l-10 -23h-1l-12 34l6 1l7 -23l10 23h1l10 -23l7 22h6zM211 -71l-12 -34h-1l-11 23l-10 -23h-1l-12 34l6 1l7 -23l10 23h1l10 -23
l7 22h6zM155 -71l-12 -34h-1l-11 23l-10 -23h-1l-12 34l6 1l7 -23l10 23h1l10 -23l7 22h6zM716 -101q0 -4 -4 -4t-4 4t4 4t4 -4zM284 -101q0 -4 -4 -4t-4 4t4 4t4 -4zM559 686q0 8 -1 12q-2 -1 -17 -1t-18 1l-1 -12h2q4 9 10 9q3 0 3 -3v-23q-1 -5 -5 -5v-2h17v2l-4 2
q-1 1 -1 3v23q0 3 3 3t5.5 -2.5t3.5 -4.5l1 -2h2zM504 662v2q-6 -1 -6 5v21l6 5v2h-18v-1v-1l4 -2q1 -1 1 -3v-9h-17v9q1 5 5 5v1v1h-17v-2l4 -2q1 -1 1 -3v-21l-5 -5v-2h17v2q-5 0 -5 5v10h17v-10q-1 -5 -5 -5v-2h18zM439 664l-4 2q-1 1 -1 3v21q1 5 5 5v2h-29l-2 -10l2 -1
q3 8 9 8h4q4 0 4 -3v-10h-4l-6 5h-2v-13h2q0 6 6 6h4v-11q0 -3 -4 -3h-4q-3 0 -5.5 2.5t-3.5 4.5l-1 2l-2 -1l2 -11h30v2zM827 618v6h-685v-6h685zM696 540q0 15 -11.5 26.5t-25.5 11.5q-8 0 -15.5 -5.5t-7.5 -16.5q0 -16 11 -27t26 -11q8 0 15.5 5.5t7.5 16.5zM589 537
q0 12 -14 17q5 3 5 9q0 15 -21 15q-13 0 -13 -11q0 -6 5 -6q4 0 4 3q0 2 -1.5 3.5t-1.5 2.5q0 5 7 5q10 0 10 -12q0 -4 -2 -6q-16 2 -16 -6q0 -6 8 -6q6 0 11 5q6 -4 6 -15q0 -14 -12 -14t-12 9q0 3 3 3l1 -1q2 -1 4 -1q4 0 4 5t-7 5q-9 0 -9 -10q0 -13 16 -13q25 0 25 19z
M295 537q0 12 -14 17q5 3 5 9q0 15 -21 15q-13 0 -13 -11q0 -6 5 -6q4 0 4 3q0 2 -1.5 3.5t-1.5 2.5q0 5 7 5q10 0 10 -12q0 -4 -2 -6q-16 2 -16 -6q0 -6 8 -6q6 0 11 5q6 -4 6 -15q0 -14 -12 -14t-12 9q0 3 3 3l1 -1q2 -1 4 -1q4 0 4 5t-7 5q-9 0 -9 -10q0 -13 16 -13
q25 0 25 19zM820 522q-8 -1 -10 8l-7 35q-1 4 1 6t4 2h2l-1 3h-28l1 -3q7 1 9 -8l3 -15h-24l-3 15q-1 4 1 6t4 2h2l-1 3h-29l1 -3q8 1 10 -8l7 -35q1 -4 -1 -6t-4 -2h-2l1 -3h29l-1 3q-8 -1 -10 8l-3 16h24l3 -16q1 -4 -1 -6t-4 -2h-2l1 -3h29zM498 519l-1 3q-8 -1 -10 8
l-7 35q-1 4 1 6t4 2h2l-1 3h-45v-17h4q-1 13 13 13h4q5 0 6 -6l3 -16h-4q-4 0 -7 2t-4 4l-1 3h-3l5 -23h3q-1 11 8 11h4l3 -17q1 -4 -1 -6t-4 -2h-2l1 -3h29zM202 522q-8 -1 -10 8l-7 35q-1 4 1 6t4 2h2l-1 3h-27q-20 0 -20 -15q0 -13 19 -15l-9 -16q-2 -4 -5.5 -6t-6.5 -2
h-2l1 -3h19l12 23q2 3 5 3l3 -15q1 -4 -1 -6t-4 -2h-2l1 -3h29zM400 521q0 8 -13 9q-4 2 -5 14.5t-5.5 23t-18.5 10.5q-5 0 -9 -3.5t-4 -6.5q0 -5 5 -5q4 0 4 6t5 6t7 -8t4.5 -19.5t9.5 -17.5q-8 0 -14 -6.5t-9 -6.5q-5 0 -5 4q0 2 1 3t1 2q0 5 -5 5t-5 -7q0 -4 5 -8t10 -4
q10 0 15 6.5t10 6.5q4 -7 12 -7q4 0 4 3zM827 475v6h-685v-6h685zM827 378v62h-147v-62h36v28h11v-65h-14v-33h81v33h-14v65h11v-28h36zM648 406v34h-81v-34h11l-15 -23l-15 23h10v34h-62v-34h12l37 -46v-19h-14v-33h81v33h-15v20l37 45h14zM458 308v33h-14v65h14v34h-96
q-21 0 -34 -11.5t-13 -28.5q0 -18 13 -29t34 -11h30v-19h-15v-33h81zM283 308v33h-14v65h14v34h-141v-62h41v28h33v-20h-24v-24h24v-21h-33v28h-41v-61h141zM827 271v6h-685v-6h685zM728 192q0 15 -11.5 26.5t-25.5 11.5q-8 0 -15.5 -5.5t-7.5 -16.5q0 -16 11 -27t26 -11
q8 0 15.5 5.5t7.5 16.5zM203 217q-7 13 -18 13q-15 0 -14 -23q-7 23 -21 23q-12 0 -12 -12l3 -1q0 6 8 6q16 0 24 -33q2 -8 0.5 -11.5t-3.5 -3.5h-3l1 -4h28l-1 4q-7 -2 -10 9q-5 17 -5 25q0 13 9 13q5 0 12 -7zM823 171l-1 3q-8 -1 -10 8l-7 35q-1 4 1 6t4 2h2l-1 3h-45
v-17h4q-1 13 13 13h4q5 0 6 -6l3 -16h-4q-4 0 -7 2t-4 4l-1 3h-3l5 -23h3q-1 11 8 11h4l3 -17q1 -4 -1 -6t-4 -2h-2l1 -3h29zM621 225l-1 3h-29l1 -3q8 1 10 -9l5 -21q5 -20 -11 -20q-14 0 -20 22l-4 19q-1 5 1 7t4 2h2v3h-24l1 -3q9 1 11 -9l4 -19q5 -27 28 -27q24 0 19 24
l-5 22q-1 5 1 7t4 2h3zM522 174q-6 0 -9 10l-7 32q-1 4 1 6.5t5 2.5h2l-1 3h-14l-29 -42l-5 30q-1 4 1 6t4 2l2 1l-1 3h-21l1 -3q7 0 9 -9l8 -45l3 -1l30 44l6 -30q1 -5 -0.5 -7.5t-3.5 -2.5h-2l1 -3h21zM414 171l-1 4q-7 -2 -10 9l-8 31q-3 9 8 10l-1 3h-30q-25 0 -25 -22
q0 -15 11 -25t24 -10h32zM306 174q-8 -1 -10 8l-7 35q-1 4 1 6t4 2h2l-1 3h-27q-20 0 -20 -15q0 -13 19 -15l-9 -16q-2 -4 -5.5 -6t-6.5 -2h-2l1 -3h19l12 23q2 3 5 3l3 -15q1 -4 -1 -6t-4 -2h-2l1 -3h29zM827 127v6h-685v-6h685zM694 46v2q-6 1 -6 5v20l6 6v2h-10l-24 -26
v18q0 2 1.5 3.5t2.5 1.5l2 1v2h-15v-2q6 -1 6 -6v-28h3l25 28v-20l-5 -5v-2h14zM633 48l-4 2q-1 1 -1 3v21q1 5 5 5v2h-29l-2 -10l2 -1q3 8 9 8h4q4 0 4 -3v-10h-4l-6 5h-2v-13h2q0 6 6 6h4v-11q0 -3 -4 -3h-4q-3 0 -5.5 2.5t-3.5 4.5l-1 2l-2 -1l2 -11h30v2zM583 81h-15v-2
l2 -5l-9 -19l-5 10l4 8l6 6v2h-26l1 -2q3 0 7 -6l3 -5l-7 -13l-8 18l2 6v2h-13v-2q4 -1 6 -6l13 -27h1q1 -1 1 0l8 16l9 -16h1l12 27q1 3 3 4.5t3 1.5h1v2zM480 79v2h-15v-2l1 -5l-6 -9l-6 9l3 5v2h-15v-2q5 0 8 -5l8 -12v-8l-5 -6v-2h17v2q-5 0 -5 6v8l8 12zM425 64
q0 18 -20 18t-20 -18q0 -19 20 -19t20 19zM364 46v2q-5 0 -5 5v20l5 6v2h-18q-13 0 -13 -9q0 -5 9 -9l-7 -10l-8 -5v-2h11l7 12q3 4 7 4v-9l-5 -5v-2h17zM309 46v2q-6 1 -6 6v20l6 5v2h-18v-2q6 0 6 -5v-9q-2 0 -4 2l-8 8l1 4v2h-14v-2q5 -1 8 -4l10 -9l-13 -13l-7 -5v-2h17
v2l-2 5l8 8q2 2 4 2v-9q0 -3 -1.5 -4.5t-3.5 -1.5h-1v-2h18zM606 -83q0 8 -11 7v-13q11 0 11 6zM525 -82q0 8 -11 6v-12q11 -1 11 6zM394 -83q0 8 -11 7v-13q11 0 11 6zM564 -92l-5 12l-5 -12h10zM800 -88q0 13 -11 13t-11 -12q0 -13 11 -13t11 12zM441 -88q0 13 -11 13
t-11 -12q0 -13 11 -13t11 12zM176 548h-5q-15 0 -15 15q0 9 8 9t9 -5zM566 553q-3 -4 -7 -4t-4 2q0 3 4 3q5 0 7 -1zM272 553q-3 -4 -7 -4t-4 2q0 3 4 3q5 0 7 -1zM684 535q0 -13 -11 -13q-9 0 -17 11.5t-8 26.5q0 14 11 14q9 0 17 -12t8 -27zM392 384h-11q-13 0 -13 11
t13 11h11v-22zM280 200h-5q-15 0 -15 15q0 9 8 9t9 -5zM716 187q0 -13 -11 -13q-9 0 -17 11.5t-8 26.5q0 14 11 14q9 0 17 -12t8 -27zM393 182q0 -7 -4 -7h-5q-11 0 -18.5 10t-7.5 22q0 17 14 17h6q4 -1 6 -7zM553 79q5 0 0 -9q-5 9 0 9zM352 64h-3q-8 0 -8 8q0 6 7 6
q4 0 4 -4v-10zM417 64q0 -17 -12 -17t-12 17q0 16 12 16t12 -16z" />
    <glyph glyph-name="dotlessi" horiz-adv-x="253" 
d="M181 0h-108v468h108v-468z" />
    <glyph glyph-name="breve" horiz-adv-x="343" 
d="M314 643q0 -37 -39 -64.5t-104 -27.5t-103.5 27.5t-38.5 64.5q0 27 10 44h63v-17q0 -55 69 -55q70 0 70 55v17h63q10 -17 10 -44z" />
    <glyph glyph-name="dotaccent" horiz-adv-x="272" 
d="M186 568h-100v94h100v-94z" />
    <glyph glyph-name="ring" horiz-adv-x="268" 
d="M240 647q0 -41 -29.5 -70.5t-76.5 -29.5t-77 29.5t-30 70.5t30 70.5t77 29.5t76.5 -29.5t29.5 -70.5zM184 647q0 24 -13 38t-37 14t-37 -14t-13 -38q0 -23 13 -37t37 -14t37 14t13 37z" />
    <glyph glyph-name="hungarumlaut" horiz-adv-x="356" 
d="M350 698l-97 -149h-65l62 149h100zM193 698l-84 -149h-64l49 149h99z" />
    <glyph glyph-name="ogonek" horiz-adv-x="273" 
d="M236 -195q-26 -14 -77 -14q-53 0 -87.5 27t-34.5 69q0 46 44 87t123 65l11 -16q-102 -61 -102 -121q0 -63 88 -63h35v-34z" />
    <glyph glyph-name="caron" horiz-adv-x="397" 
d="M367 659q-37 0 -69 -28t-47 -79h-106q-15 51 -46.5 79t-68.5 28v29q27 8 55 8q41 0 72.5 -26t43.5 -67q11 41 43.5 67t73.5 26q22 0 49 -8v-29z" />
    </font>
</defs>
</svg>
